<svg xmlns="http://www.w3.org/2000/svg" width="50" height="52.498" viewBox="0 0 50 52.498">
  <g id="cersei" transform="translate(-7 -4.502)">
    <path id="Path_1190" data-name="Path 1190" d="M38.86,46.59,37.78,34.7v-.27c0-5.11-1.67-9.61-5.77-12.29-4.1,2.68-5.74,7.18-5.77,12.29v.27l-1.1,11.89Z" fill="#f9dfcd"/>
    <path id="Path_1191" data-name="Path 1191" d="M38.86,47.59H25.14l-1-1.09,1.07-11.89a1.28,1.28,0,0,0,0-.19c0-6,2.18-10.48,6.22-13.11h1.1c4,2.63,6.19,7.16,6.22,13.11a1.28,1.28,0,0,0,0,.19l1.1,11.89Zm-12.62-2H37.76l-1-10.8v-.35c0-5-1.63-8.76-4.77-11.08-3.14,2.32-4.74,6-4.77,11.07v.35Z" fill="#041256"/>
    <circle id="Ellipse_12" data-name="Ellipse 12" cx="14.06" cy="14.06" r="14.06" transform="translate(17.94 5.5)" fill="#d8b96a"/>
    <path id="Path_1192" data-name="Path 1192" d="M43.14,21.47A11.14,11.14,0,1,0,21.2,24.2a25.52,25.52,0,0,1,.9,6.38v.52A6.41,6.41,0,0,0,24.21,36l3.93,3.56a4,4,0,0,0,2.7,1h2.32a4,4,0,0,0,2.7-1L39.79,36a6.35,6.35,0,0,0,2.11-4.74v-.63a24.41,24.41,0,0,1,.86-6.25A10.84,10.84,0,0,0,43.14,21.47Z" fill="#ffeadc"/>
    <path id="Path_1193" data-name="Path 1193" d="M39.23,12.89a3.65,3.65,0,0,0-.25-.53c-1.68-2.91-7.26-2.84-12.46.17-4.31,2.49-7,6.2-6.84,9.06a3.13,3.13,0,0,0-.43,0l1.36,7.35a2.91,2.91,0,0,0,2.8-3.66c2.51.44,5.93-.29,9.19-2.18a16.44,16.44,0,0,0,1.61-1,18.71,18.71,0,0,1-1.63,1.86,16.81,16.81,0,0,1-1.69,1.5c2.59-.12,5.84-1.72,8.61-4.49a17.52,17.52,0,0,0,3.55-5,8.18,8.18,0,0,0-3.82-3.08Z" fill="#edd2c0"/>
    <path id="Path_1194" data-name="Path 1194" d="M31.55,10.34a3.57,3.57,0,0,0-.46,0A11.12,11.12,0,0,1,41.28,21.47a11.27,11.27,0,0,1-.37,2.86,24,24,0,0,0-.86,6.25v.63A6.39,6.39,0,0,1,37.94,36L34,39.51a4,4,0,0,1-2.71,1h1.86a4,4,0,0,0,2.7-1L39.79,36a6.35,6.35,0,0,0,2.11-4.74v-.63a24.41,24.41,0,0,1,.86-6.25,10.84,10.84,0,0,0,.38-2.86A11.13,11.13,0,0,0,31.55,10.34Z" fill="#5df9e6"/>
    <path id="Path_1195" data-name="Path 1195" d="M26.39,36a6.45,6.45,0,0,1-2.11-4.85v-.52a26,26,0,0,0-.89-6.38,11.13,11.13,0,0,1,9.7-13.81A11.13,11.13,0,0,0,21.2,24.2a25.52,25.52,0,0,1,.9,6.38v.52A6.41,6.41,0,0,0,24.21,36l3.93,3.56a4,4,0,0,0,2.7,1H33a4,4,0,0,1-2.71-1Z" fill="#fff6f0"/>
    <path id="Path_1196" data-name="Path 1196" d="M29.52,25.52l1.98,1.19v4.71l-1.23-.67.54-.72-.71-1.79.71-.74Z" fill="#fff6f0"/>
    <path id="Path_1197" data-name="Path 1197" d="M34.48,25.52l-1.99,1.19v4.71l1.24-.67-.54-.72.71-1.79-.71-.74Z" fill="#f9dfcd"/>
    <path id="Path_1198" data-name="Path 1198" d="M33.16,41.55H30.84a5,5,0,0,1-3.37-1.3L23.54,36.7a7.41,7.41,0,0,1-2.44-5.6v-.52a24.76,24.76,0,0,0-.86-6.13,12.14,12.14,0,1,1,23.49.13,23.23,23.23,0,0,0-.83,6v.63a7.41,7.41,0,0,1-2.44,5.49l-3.93,3.55a5,5,0,0,1-3.37,1.3ZM32,11.33h-.41A10.19,10.19,0,0,0,21.87,21a10.42,10.42,0,0,0,.3,2.95,26.44,26.44,0,0,1,.93,6.63v.52a5.43,5.43,0,0,0,1.78,4.11l3.93,3.55a3,3,0,0,0,2,.79h2.32a3,3,0,0,0,2-.78l3.93-3.56a5.4,5.4,0,0,0,1.78-4v-.63a25,25,0,0,1,.9-6.51,10.36,10.36,0,0,0,.34-2.6A10.15,10.15,0,0,0,32,11.33Z" fill="#041256"/>
    <path id="Path_1199" data-name="Path 1199" d="M41,23a4.48,4.48,0,0,1,4.16-3.66L43.8,26.69A2.91,2.91,0,0,1,41,23Z" fill="#d8b96a"/>
    <ellipse id="Ellipse_13" data-name="Ellipse 13" cx="4.33" cy="5.93" rx="4.33" ry="5.93" transform="translate(36.53 11.64)" fill="#d8b96a"/>
    <path id="Path_1200" data-name="Path 1200" d="M44,19.56a14,14,0,0,1-2.361,7.781,10.59,10.59,0,0,1,1.411.9A14,14,0,0,0,32,5.5H31A14.05,14.05,0,0,1,44,19.56Z" fill="#5df9e6"/>
    <path id="Path_1201" data-name="Path 1201" d="M43.83,27.71h0A3.77,3.77,0,0,1,41,26.53a3.86,3.86,0,0,1-1-2.11c-2.55-.53-4.5-3.4-4.5-6.85a1,1,0,0,1,2,0c0,2.67,1.53,4.93,3.33,4.93H42.1L42,23.56a2.13,2.13,0,0,0,.51,1.61,1.82,1.82,0,0,0,1.34.54,1,1,0,1,1-.02,2Z" fill="#041256"/>
    <path id="Path_1202" data-name="Path 1202" d="M30.93,36.11a1.07,1.07,0,0,0,2.14,0Z" fill="#edd2c0"/>
    <path id="Path_1203" data-name="Path 1203" d="M33.22,34.23,32,34.52l-1.22-.29-1,.29a2.72,2.72,0,0,0,4.36,0Z" fill="#f7ad9f"/>
    <path id="Path_1204" data-name="Path 1204" d="M32.9,33.55c-.3-.2-.9.27-.9.27s-.6-.47-.9-.27-1.69.81-1.69.81l.52.07.59-.11,1.48.44,1.48-.44.59.11.52-.07S33.21,33.74,32.9,33.55Z" fill="#f7ad9f"/>
    <path id="Path_1205" data-name="Path 1205" d="M33.41,31.22l-.85.37h0l-.56-.1-.56.08h0l-.85-.37-.44.19.44.42a2.35,2.35,0,0,0,.76.48l.65.25.65-.25a2.35,2.35,0,0,0,.76-.48l.44-.42Z" fill="#edd2c0"/>
    <path id="Path_1206" data-name="Path 1206" d="M32,31.87a2.46,2.46,0,0,1-.52-.1,3,3,0,0,1-.44-.23l-.41-.25c-.11-.08-.26,0-.41.08.12-.08.24-.25.45-.19l.47.13a2,2,0,0,0,.44.1,1.72,1.72,0,0,0,.42,0Z" fill="#041256"/>
    <path id="Path_1207" data-name="Path 1207" d="M33.78,31.37c-.15-.06-.3-.16-.41-.08l-.41.25a3,3,0,0,1-.44.23,2.46,2.46,0,0,1-.52.1v-.5a1.72,1.72,0,0,0,.42,0,2,2,0,0,0,.44-.1l.47-.13C33.54,31.12,33.66,31.29,33.78,31.37Z" fill="#041256"/>
    <path id="Path_1208" data-name="Path 1208" d="M28.84,34.41h.9l.9-.15h0l1.3.07a.26.26,0,0,1,.23.27.23.23,0,0,1-.26.23h-.05l-1.26-.3h0l-.91.05h0Z" fill="#041256"/>
    <path id="Path_1209" data-name="Path 1209" d="M35.16,34.41l-.9.18h0l-.91-.05h0l-1.26.3a.252.252,0,0,1-.12-.49h0l1.3-.07h0l.9.15h.9Z" fill="#041256"/>
    <path id="Path_1210" data-name="Path 1210" d="M30.78,36.05a6.26,6.26,0,0,1,2.44,0,5.79,5.79,0,0,1-2.44,0Z" fill="#041256"/>
    <path id="Path_1211" data-name="Path 1211" d="M28.45,26.53a.76.76,0,0,1-.84.7.778.778,0,1,1,.84-.7Z" fill="#041256"/>
    <path id="Path_1212" data-name="Path 1212" d="M30.26,26c-.37-.16-.72-.38-1-.52a2.74,2.74,0,0,0-1-.2h0A11,11,0,0,1,26.4,25a8.35,8.35,0,0,1-1.73-.62,7.59,7.59,0,0,1,1.84,0,11.93,11.93,0,0,1,1.79.29h0a2.18,2.18,0,0,1,1.18.49,4.55,4.55,0,0,1,.78.84Z" fill="#041256"/>
    <path id="Path_1213" data-name="Path 1213" d="M22.86,27.28a4.4,4.4,0,0,0,1.25,3.31,6.85,6.85,0,0,0,.77.66,4.31,4.31,0,0,1,.76.84,4,4,0,0,1,.7,2,3.77,3.77,0,0,0-1.08-1.71,3.93,3.93,0,0,0-.8-.55,7.59,7.59,0,0,1-1-.5,5.7,5.7,0,0,1-1.68-1.64,6,6,0,0,1-.93-2.26h0a1.02,1.02,0,1,1,2-.4,1.18,1.18,0,0,1,.01.25Z" fill="#041256"/>
    <path id="Path_1214" data-name="Path 1214" d="M35.55,26.53a.76.76,0,0,0,.84.7.778.778,0,1,0-.84-.7Z" fill="#041256"/>
    <path id="Path_1215" data-name="Path 1215" d="M33.74,26a4.55,4.55,0,0,1,.81-.9,2.18,2.18,0,0,1,1.18-.49h0a11.93,11.93,0,0,1,1.79-.29,7.59,7.59,0,0,1,1.84,0A8.35,8.35,0,0,1,37.6,25a11,11,0,0,1-1.79.3h0a2.74,2.74,0,0,0-1,.2C34.46,25.64,34.11,25.86,33.74,26Z" fill="#041256"/>
    <path id="Path_1216" data-name="Path 1216" d="M43.13,27.47a6,6,0,0,1-.93,2.26,5.7,5.7,0,0,1-1.68,1.64,7.591,7.591,0,0,1-1,.5,3.93,3.93,0,0,0-.8.55,3.77,3.77,0,0,0-1.08,1.71,4,4,0,0,1,.7-2,4.31,4.31,0,0,1,.76-.84,6.849,6.849,0,0,0,.77-.66,4.4,4.4,0,0,0,1.25-3.31,1,1,0,0,1,2,.13Z" fill="#041256"/>
    <path id="Path_1217" data-name="Path 1217" d="M38.79,10.7a3.649,3.649,0,0,0-.25-.53c-1.68-2.91-7.26-2.83-12.46.17-4.31,2.49-7,6.21-6.84,9.06h-.43l1.36,7.35A2.91,2.91,0,0,0,23,23.05c2.5.44,5.92-.28,9.19-2.17.56-.33,1.09-.68,1.6-1a19.679,19.679,0,0,1-1.62,1.85,19.341,19.341,0,0,1-1.69,1.5c2.58-.12,5.83-1.72,8.6-4.49a17.16,17.16,0,0,0,3.55-5,8.14,8.14,0,0,0-3.84-3.04Z" fill="#d8b96a"/>
    <path id="Path_1218" data-name="Path 1218" d="M32,5.5A14.06,14.06,0,0,0,20.25,27.28,6.76,6.76,0,0,1,22.12,26a13.88,13.88,0,0,1-1-5.25A14.07,14.07,0,0,1,35.16,6.64,13.71,13.71,0,0,1,38.31,7,14,14,0,0,0,32,5.5Z" fill="#eacd8c"/>
    <path id="Path_1219" data-name="Path 1219" d="M33.91,11.3H34a10.84,10.84,0,0,1,3-.42,11,11,0,0,1,2.45.28,10.92,10.92,0,0,0-15,5.66,10.93,10.93,0,0,1,9.46-5.52Z" fill="#eacd8c"/>
    <path id="Path_1220" data-name="Path 1220" d="M31.15,13.16a10.94,10.94,0,0,0-4.44,3.39,11.05,11.05,0,0,0-1.62,3,5.33,5.33,0,0,1,1.05.1,10.89,10.89,0,0,1,5-6.46Z" fill="#eacd8c"/>
    <path id="Path_1221" data-name="Path 1221" d="M41.94,30.51a1,1,0,0,1-.71-1.71,13.06,13.06,0,1,0-18.47,0,1,1,0,0,1-1.41,1.41,15.06,15.06,0,1,1,21.3,0,1,1,0,0,1-.71.3Z" fill="#041256"/>
    <path id="Path_1222" data-name="Path 1222" d="M20.17,25.71A1.81,1.81,0,0,0,21.72,25a2.42,2.42,0,0,0,.44-1.84L22,22l1.12.23a11.46,11.46,0,0,0,5.33-.4,18,18,0,0,0,2.61-1,26.74,26.74,0,0,0,2.44-1.38l2.77-1.62-2.13,2.28-1.65,1.77c-.29.28-.61.52-.92.78l-.92.77-.21-.56a10.81,10.81,0,0,0,4.62-1.32,18,18,0,0,0,4-2.86,18,18,0,0,1-3.85,3.14,11.36,11.36,0,0,1-4.74,1.67l-.89.08.68-.64.84-.8c.28-.27.57-.53.84-.81l1.46-1.79.64.66a27,27,0,0,1-2.47,1.63,20.07,20.07,0,0,1-2.71,1.23,12.85,12.85,0,0,1-6,.8l1-1a4.13,4.13,0,0,1-.59,3.21,3.74,3.74,0,0,1-3,1.59h0a1,1,0,0,1,0-2Z" fill="#041256"/>
    <path id="Path_1223" data-name="Path 1223" d="M28.2,32.2a.31.31,0,1,1-.31-.31.31.31,0,0,1,.31.31Z" fill="#fff6f0"/>
    <path id="Path_1224" data-name="Path 1224" d="M39.32,44.59v-2.4a31.63,31.63,0,0,1-7.32.72,31.63,31.63,0,0,1-7.32-.72v2.4L8,47.21V56H56V47.21Z" fill="#212e5e"/>
    <path id="Path_1225" data-name="Path 1225" d="M33.6,50.81l-1.36,3.87a.25.25,0,0,1-.48,0L30.4,50.81a.25.25,0,0,1,0-.17l1.36-3.87a.25.25,0,0,1,.48,0l1.36,3.87A.25.25,0,0,1,33.6,50.81Z" fill="#304272"/>
    <path id="Path_1226" data-name="Path 1226" d="M39.32,44.52V42.19a31.63,31.63,0,0,1-7.32.72,31.63,31.63,0,0,1-7.32-.72v2.33a31.63,31.63,0,0,0,7.32.72,31.63,31.63,0,0,0,7.32-.72Z" fill="#304272"/>
    <path id="Path_1227" data-name="Path 1227" d="M39.32,44.59v2.33L56,49.54V47.21Z" fill="#304272"/>
    <path id="Path_1228" data-name="Path 1228" d="M24.68,44.59,8,47.21v2.33l16.68-2.62Z" fill="#304272"/>
    <path id="Path_1229" data-name="Path 1229" d="M56,57H8L7,56V47.21l.84-1,15.84-2.49V42.19l1.25-1a30.66,30.66,0,0,0,7.07.69,30.66,30.66,0,0,0,7.07-.69l1.25,1v1.54l15.84,2.49.84,1V56ZM9,55H55V48.06L39.16,45.58l-.84-1V43.42a36.55,36.55,0,0,1-6.32.49,36.55,36.55,0,0,1-6.32-.49v1.17l-.84,1L9,48.06Z" fill="#041256"/>
  </g>
</svg>
