<svg xmlns="http://www.w3.org/2000/svg" width="50" height="50.011" viewBox="0 0 50 50.011">
  <g id="daenerys" transform="translate(-7 -6.989)">
    <path id="Path_75" data-name="Path 75" d="M14.7,45a3.566,3.566,0,0,0,.9,3.4,3.743,3.743,0,0,0,2.2-4.8,4.728,4.728,0,0,0-.7-1.2A3.692,3.692,0,0,0,14.7,45Z" fill="#f2e8d1"/>
    <path id="Path_76" data-name="Path 76" d="M15.1,43.5A3.818,3.818,0,0,0,16,47a3.692,3.692,0,0,0,2.4-2.6" fill="#f2e8d1"/>
    <path id="Path_77" data-name="Path 77" d="M15.9,47a3.775,3.775,0,0,1-1-2.7,1.445,1.445,0,0,0-.2.7,3.566,3.566,0,0,0,.9,3.4,3.38,3.38,0,0,0,2.3-2.6A2.2,2.2,0,0,0,18,45,3.757,3.757,0,0,1,15.9,47Z" fill="#fff8e9"/>
    <path id="Path_78" data-name="Path 78" d="M14.7,45a3.566,3.566,0,0,0,.9,3.4,3.743,3.743,0,0,0,2.2-4.8,4.728,4.728,0,0,0-.7-1.2A3.692,3.692,0,0,0,14.7,45Z" fill="none" stroke="#041256" stroke-linecap="round" stroke-miterlimit="10" stroke-width="1"/>
    <path id="Path_79" data-name="Path 79" d="M15.5,41.9a3.566,3.566,0,0,0,.9,3.4,3.743,3.743,0,0,0,2.2-4.8,3.458,3.458,0,0,0-.7-1.2A3.673,3.673,0,0,0,15.5,41.9Z" fill="#f2e8d1"/>
    <path id="Path_80" data-name="Path 80" d="M15.8,40.5a3.566,3.566,0,0,0,.9,3.4A3.561,3.561,0,0,0,19,41.3" fill="#f2e8d1"/>
    <path id="Path_81" data-name="Path 81" d="M16.7,44a3.775,3.775,0,0,1-1-2.7,1.445,1.445,0,0,0-.2.7,3.566,3.566,0,0,0,.9,3.4,3.692,3.692,0,0,0,2.4-2.6,1.7,1.7,0,0,0,.1-.7A4.447,4.447,0,0,1,16.7,44Z" fill="#fff8e9"/>
    <path id="Path_82" data-name="Path 82" d="M15.5,41.9a3.566,3.566,0,0,0,.9,3.4,3.743,3.743,0,0,0,2.2-4.8,3.458,3.458,0,0,0-.7-1.2A3.673,3.673,0,0,0,15.5,41.9Z" fill="none" stroke="#041256" stroke-linecap="round" stroke-miterlimit="10" stroke-width="1"/>
    <path id="Path_83" data-name="Path 83" d="M16.2,38.9a3.566,3.566,0,0,0,.9,3.4,3.743,3.743,0,0,0,2.2-4.8,3.458,3.458,0,0,0-.7-1.2A3.885,3.885,0,0,0,16.2,38.9Z" fill="#f2e8d1"/>
    <path id="Path_84" data-name="Path 84" d="M16.6,37.5a3.818,3.818,0,0,0,.9,3.5,3.692,3.692,0,0,0,2.4-2.6" fill="#f2e8d1"/>
    <path id="Path_85" data-name="Path 85" d="M17.4,41a3.775,3.775,0,0,1-1-2.7,1.445,1.445,0,0,0-.2.7,3.566,3.566,0,0,0,.9,3.4,3.692,3.692,0,0,0,2.4-2.6,1.7,1.7,0,0,0,.1-.7A4.069,4.069,0,0,1,17.4,41Z" fill="#fff8e9"/>
    <path id="Path_86" data-name="Path 86" d="M16.2,38.9a3.566,3.566,0,0,0,.9,3.4,3.743,3.743,0,0,0,2.2-4.8,3.458,3.458,0,0,0-.7-1.2A3.885,3.885,0,0,0,16.2,38.9Z" fill="none" stroke="#041256" stroke-linecap="round" stroke-miterlimit="10" stroke-width="1"/>
    <path id="Path_87" data-name="Path 87" d="M17,35.9a3.566,3.566,0,0,0,.9,3.4,3.743,3.743,0,0,0,2.2-4.8,4.728,4.728,0,0,0-.7-1.2A3.885,3.885,0,0,0,17,35.9Z" fill="#f2e8d1"/>
    <path id="Path_88" data-name="Path 88" d="M17.3,34.5a3.566,3.566,0,0,0,.9,3.4,3.9,3.9,0,0,0,2.4-2.6" fill="#f2e8d1"/>
    <path id="Path_89" data-name="Path 89" d="M18.2,37.9a3.775,3.775,0,0,1-1-2.7,1.445,1.445,0,0,0-.2.7,3.566,3.566,0,0,0,.9,3.4,3.692,3.692,0,0,0,2.4-2.6,1.7,1.7,0,0,0,.1-.7A4.447,4.447,0,0,1,18.2,37.9Z" fill="#fff8e9"/>
    <path id="Path_90" data-name="Path 90" d="M17,35.9a3.566,3.566,0,0,0,.9,3.4,3.743,3.743,0,0,0,2.2-4.8,4.728,4.728,0,0,0-.7-1.2A3.885,3.885,0,0,0,17,35.9Z" fill="none" stroke="#041256" stroke-linecap="round" stroke-miterlimit="10" stroke-width="1"/>
    <path id="Path_91" data-name="Path 91" d="M17.7,32.9a3.566,3.566,0,0,0,.9,3.4,3.743,3.743,0,0,0,2.2-4.8,4.728,4.728,0,0,0-.7-1.2A3.692,3.692,0,0,0,17.7,32.9Z" fill="#f2e8d1"/>
    <path id="Path_92" data-name="Path 92" d="M18,31.5a3.566,3.566,0,0,0,.9,3.4,3.692,3.692,0,0,0,2.4-2.6" fill="#f2e8d1"/>
    <path id="Path_93" data-name="Path 93" d="M18.9,34.9a3.775,3.775,0,0,1-1-2.7,1.445,1.445,0,0,0-.2.7,3.566,3.566,0,0,0,.9,3.4A3.692,3.692,0,0,0,21,33.7a1.7,1.7,0,0,0,.1-.7A4.069,4.069,0,0,1,18.9,34.9Z" fill="#fff8e9"/>
    <path id="Path_94" data-name="Path 94" d="M17.7,32.9a3.566,3.566,0,0,0,.9,3.4,3.743,3.743,0,0,0,2.2-4.8,4.728,4.728,0,0,0-.7-1.2A3.692,3.692,0,0,0,17.7,32.9Z" fill="none" stroke="#041256" stroke-linecap="round" stroke-miterlimit="10" stroke-width="1"/>
    <path id="Path_95" data-name="Path 95" d="M49.3,45a3.566,3.566,0,0,1-.9,3.4,3.743,3.743,0,0,1-2.2-4.8,4.728,4.728,0,0,1,.7-1.2A3.692,3.692,0,0,1,49.3,45Z" fill="#f2e8d1"/>
    <path id="Path_96" data-name="Path 96" d="M48.9,43.5A3.818,3.818,0,0,1,48,47a3.38,3.38,0,0,1-2.3-2.6" fill="#f2e8d1"/>
    <path id="Path_97" data-name="Path 97" d="M48.1,47a3.775,3.775,0,0,0,1-2.7,1.445,1.445,0,0,1,.2.7,3.566,3.566,0,0,1-.9,3.4,3.38,3.38,0,0,1-2.3-2.6A2.2,2.2,0,0,1,46,45,3.757,3.757,0,0,0,48.1,47Z" fill="#fff8e9"/>
    <path id="Path_98" data-name="Path 98" d="M49.3,45a3.566,3.566,0,0,1-.9,3.4,3.743,3.743,0,0,1-2.2-4.8,4.728,4.728,0,0,1,.7-1.2A3.692,3.692,0,0,1,49.3,45Z" fill="none" stroke="#041256" stroke-linecap="round" stroke-miterlimit="10" stroke-width="1"/>
    <path id="Path_99" data-name="Path 99" d="M48.5,41.9a3.566,3.566,0,0,1-.9,3.4,3.743,3.743,0,0,1-2.2-4.8,3.458,3.458,0,0,1,.7-1.2A3.673,3.673,0,0,1,48.5,41.9Z" fill="#f2e8d1"/>
    <path id="Path_100" data-name="Path 100" d="M48.2,40.5a3.566,3.566,0,0,1-.9,3.4A3.561,3.561,0,0,1,45,41.3" fill="#f2e8d1"/>
    <path id="Path_101" data-name="Path 101" d="M47.3,44a3.775,3.775,0,0,0,1-2.7,1.445,1.445,0,0,1,.2.7,3.566,3.566,0,0,1-.9,3.4,3.38,3.38,0,0,1-2.3-2.6,1.7,1.7,0,0,1-.1-.7A3.879,3.879,0,0,0,47.3,44Z" fill="#fff8e9"/>
    <path id="Path_102" data-name="Path 102" d="M48.5,41.9a3.566,3.566,0,0,1-.9,3.4,3.743,3.743,0,0,1-2.2-4.8,3.458,3.458,0,0,1,.7-1.2A3.673,3.673,0,0,1,48.5,41.9Z" fill="none" stroke="#041256" stroke-linecap="round" stroke-miterlimit="10" stroke-width="1"/>
    <path id="Path_103" data-name="Path 103" d="M47.8,38.9a3.566,3.566,0,0,1-.9,3.4,3.743,3.743,0,0,1-2.2-4.8,3.458,3.458,0,0,1,.7-1.2A3.885,3.885,0,0,1,47.8,38.9Z" fill="#f2e8d1"/>
    <path id="Path_104" data-name="Path 104" d="M47.4,37.5a3.818,3.818,0,0,1-.9,3.5,3.38,3.38,0,0,1-2.3-2.6" fill="#f2e8d1"/>
    <path id="Path_105" data-name="Path 105" d="M46.6,41a3.775,3.775,0,0,0,1-2.7,1.445,1.445,0,0,1,.2.7,3.566,3.566,0,0,1-.9,3.4,3.38,3.38,0,0,1-2.3-2.6,1.7,1.7,0,0,1-.1-.7A3.572,3.572,0,0,0,46.6,41Z" fill="#fff8e9"/>
    <path id="Path_106" data-name="Path 106" d="M47.8,38.9a3.566,3.566,0,0,1-.9,3.4,3.743,3.743,0,0,1-2.2-4.8,3.458,3.458,0,0,1,.7-1.2A3.885,3.885,0,0,1,47.8,38.9Z" fill="none" stroke="#041256" stroke-linecap="round" stroke-miterlimit="10" stroke-width="1"/>
    <path id="Path_107" data-name="Path 107" d="M47,35.9a3.566,3.566,0,0,1-.9,3.4,3.743,3.743,0,0,1-2.2-4.8,4.728,4.728,0,0,1,.7-1.2A3.885,3.885,0,0,1,47,35.9Z" fill="#f2e8d1"/>
    <path id="Path_108" data-name="Path 108" d="M46.7,34.5a3.566,3.566,0,0,1-.9,3.4,3.561,3.561,0,0,1-2.3-2.6" fill="#f2e8d1"/>
    <path id="Path_109" data-name="Path 109" d="M45.8,37.9a3.775,3.775,0,0,0,1-2.7,1.445,1.445,0,0,1,.2.7,3.566,3.566,0,0,1-.9,3.4,3.38,3.38,0,0,1-2.3-2.6,1.7,1.7,0,0,1-.1-.7A3.879,3.879,0,0,0,45.8,37.9Z" fill="#fff8e9"/>
    <path id="Path_110" data-name="Path 110" d="M47,35.9a3.566,3.566,0,0,1-.9,3.4,3.743,3.743,0,0,1-2.2-4.8,4.728,4.728,0,0,1,.7-1.2A3.885,3.885,0,0,1,47,35.9Z" fill="none" stroke="#041256" stroke-linecap="round" stroke-miterlimit="10" stroke-width="1"/>
    <path id="Path_111" data-name="Path 111" d="M46.3,32.9a3.566,3.566,0,0,1-.9,3.4,3.743,3.743,0,0,1-2.2-4.8,4.728,4.728,0,0,1,.7-1.2A3.692,3.692,0,0,1,46.3,32.9Z" fill="#f2e8d1"/>
    <path id="Path_112" data-name="Path 112" d="M46,31.5a3.566,3.566,0,0,1-.9,3.4,3.38,3.38,0,0,1-2.3-2.6" fill="#f2e8d1"/>
    <path id="Path_113" data-name="Path 113" d="M45.1,34.9a3.775,3.775,0,0,0,1-2.7,1.445,1.445,0,0,1,.2.7,3.566,3.566,0,0,1-.9,3.4,3.38,3.38,0,0,1-2.3-2.6c0-.2-.1-.5-.1-.7A3.572,3.572,0,0,0,45.1,34.9Z" fill="#fff8e9"/>
    <path id="Path_114" data-name="Path 114" d="M46.3,32.9a3.566,3.566,0,0,1-.9,3.4,3.743,3.743,0,0,1-2.2-4.8,4.728,4.728,0,0,1,.7-1.2A3.692,3.692,0,0,1,46.3,32.9Z" fill="none" stroke="#041256" stroke-linecap="round" stroke-miterlimit="10" stroke-width="1"/>
    <path id="Path_115" data-name="Path 115" d="M56,56V46.3A43.067,43.067,0,0,1,48,45c-7.8-2.1-13.3-5.7-12.4-8.2H28.4c.9,2.5-4.6,6.1-12.4,8.2a36.112,36.112,0,0,1-8,1.3V56" fill="#823c50"/>
    <path id="Path_116" data-name="Path 116" d="M48,44.9c-7.8-2.1-13.3-5.7-12.4-8.2H28.4c.9,2.5-4.6,6.1-12.4,8.2a36.112,36.112,0,0,1-8,1.3v3a36.112,36.112,0,0,0,8-1.3c7.8-2.1,13.3-5.7,12.4-8.2h7.2c-1,2.4,4.6,6.1,12.4,8.2a36.112,36.112,0,0,0,8,1.3v-3A31.1,31.1,0,0,1,48,44.9Z" fill="#9b566d"/>
    <path id="Path_117" data-name="Path 117" d="M28.4,42.2c-.7,2.3-5.7,5.3-12.4,7.1a36.112,36.112,0,0,1-8,1.3v1.1a43.067,43.067,0,0,0,8-1.3C23.7,48.3,29.3,44.6,28.4,42.2Z" fill="#9b566d"/>
    <path id="Path_118" data-name="Path 118" d="M28.4,45.2Z" fill="#9b566d"/>
    <path id="Path_119" data-name="Path 119" d="M28.4,42.2h7.2a2.054,2.054,0,0,1,0-1.1H28.4A2.045,2.045,0,0,1,28.4,42.2Z" fill="#9b566d"/>
    <path id="Path_120" data-name="Path 120" d="M48,49.3c-6.7-1.8-11.7-4.7-12.4-7.1-.9,2.5,4.7,6.1,12.4,8.2a36.112,36.112,0,0,0,8,1.3V50.6A43.067,43.067,0,0,1,48,49.3Z" fill="#9b566d"/>
    <path id="Path_121" data-name="Path 121" d="M35.6,45.2Z" fill="#9b566d"/>
    <path id="Path_122" data-name="Path 122" d="M28.4,44.5c-.7,2.3-5.7,5.3-12.4,7.1a43.067,43.067,0,0,1-8,1.3V54a43.067,43.067,0,0,0,8-1.3C23.7,50.5,29.3,46.9,28.4,44.5Z" fill="#9b566d"/>
    <path id="Path_123" data-name="Path 123" d="M28.4,47.5Z" fill="#9b566d"/>
    <path id="Path_124" data-name="Path 124" d="M28.4,44.4h7.2a2.054,2.054,0,0,1,0-1.1H28.4A2.045,2.045,0,0,1,28.4,44.4Z" fill="#9b566d"/>
    <path id="Path_125" data-name="Path 125" d="M48,51.5c-6.7-1.8-11.7-4.7-12.4-7.1-.9,2.5,4.7,6.1,12.4,8.2a43.067,43.067,0,0,0,8,1.3V52.8A36.112,36.112,0,0,1,48,51.5Z" fill="#9b566d"/>
    <path id="Path_126" data-name="Path 126" d="M35.6,47.5Z" fill="#9b566d"/>
    <path id="Path_127" data-name="Path 127" d="M28.4,46.7C27.7,49,22.7,52,16,53.8a36.112,36.112,0,0,1-8,1.3v1.1a43.067,43.067,0,0,0,8-1.3C23.7,52.8,29.3,49.2,28.4,46.7Z" fill="#9b566d"/>
    <path id="Path_128" data-name="Path 128" d="M28.4,49.7Z" fill="#9b566d"/>
    <path id="Path_129" data-name="Path 129" d="M28.4,46.7h7.2a2.054,2.054,0,0,1,0-1.1H28.4A2.054,2.054,0,0,1,28.4,46.7Z" fill="#9b566d"/>
    <path id="Path_130" data-name="Path 130" d="M48,53.8c-6.7-1.8-11.7-4.7-12.4-7.1-.9,2.5,4.7,6.1,12.4,8.2a36.112,36.112,0,0,0,8,1.3V55.1A43.067,43.067,0,0,1,48,53.8Z" fill="#9b566d"/>
    <path id="Path_131" data-name="Path 131" d="M35.6,49.7Z" fill="#9b566d"/>
    <path id="Path_132" data-name="Path 132" d="M56,56V46.3A43.067,43.067,0,0,1,48,45c-7.8-2.1-13.3-5.7-12.4-8.2H28.4c.9,2.5-4.6,6.1-12.4,8.2a36.112,36.112,0,0,1-8,1.3V56" fill="none" stroke="#041256" stroke-linecap="round" stroke-miterlimit="10" stroke-width="2"/>
    <path id="Path_133" data-name="Path 133" d="M25.7,33.5l1,11v.2c0,4.7,1.5,8.8,5.3,11.3,3.8-2.5,5.3-6.6,5.3-11.3v-.2l1-11Z" fill="#f9dfcd"/>
    <path id="Path_134" data-name="Path 134" d="M35.6,35.9l-8.3,3.6,4.1,4.7a2.875,2.875,0,0,1,.7,1.8V56c3.7-2.5,5.2-6.6,5.3-11.3v-.2l.7-7.4Z" fill="#eacab5"/>
    <path id="Path_135" data-name="Path 135" d="M25.7,33.5l1,11v.2c0,4.7,1.5,8.8,5.3,11.3,3.8-2.5,5.3-6.6,5.3-11.3v-.2l1-11Z" fill="none" stroke="#041256" stroke-linecap="round" stroke-linejoin="bevel" stroke-width="2"/>
    <path id="Path_136" data-name="Path 136" d="M44.5,20.8a12.45,12.45,0,0,0-24.9-.1A12.631,12.631,0,0,0,21,26.4a11.8,11.8,0,0,1,1.2,3.3l.2,1a12.393,12.393,0,0,0,3.3,5.9l2.7,2.7a4.2,4.2,0,0,0,2.8,1.2h1.6a3.784,3.784,0,0,0,2.8-1.2l2.7-2.7a12.393,12.393,0,0,0,3.3-5.9l.2-1a11.961,11.961,0,0,1,1.3-3.3A11.918,11.918,0,0,0,44.5,20.8Z" fill="#ffeadc"/>
    <path id="Path_137" data-name="Path 137" d="M22.5,14l-.8,9.3L23,27.2l1.9-2.7h3.8a3.222,3.222,0,0,0,3.2-3.2h0a3.1,3.1,0,0,1,.9-2.2l3.5-3.7Z" fill="#fff6f0"/>
    <path id="Path_138" data-name="Path 138" d="M30.3,26.7l.8,1.3a.6.6,0,0,1,.1.4l.2,4.3-.9-3v-.4l.2-1v-.4Z" fill="#fff6f0"/>
    <path id="Path_139" data-name="Path 139" d="M33.7,26.7,32.9,28a.6.6,0,0,0-.1.4l-.2,4.3.9-3v-.4l-.2-1v-.4Z" fill="#f9dfcd"/>
    <path id="Path_140" data-name="Path 140" d="M27.8,34a2.94,2.94,0,0,0-1.5-1.4A2.942,2.942,0,0,1,24.8,31l-1.3-3-1.9,3.1,4.1,5,3.9,3.6" fill="#fff6f0"/>
    <path id="Path_141" data-name="Path 141" d="M36.2,34a2.94,2.94,0,0,1,1.5-1.4A2.942,2.942,0,0,0,39.2,31l1.3-3,1.9,3.1-4.1,5-3.9,3.6Z" fill="#f9dfcd"/>
    <path id="Path_142" data-name="Path 142" d="M31.1,8.4A12.436,12.436,0,0,1,42.6,20.8a13.516,13.516,0,0,1-1.3,5.6A15.068,15.068,0,0,0,40,29.7l-.2,1a12.393,12.393,0,0,1-3.3,5.9l-2.7,2.7a3.864,3.864,0,0,1-2.7,1.1h1.7a3.784,3.784,0,0,0,2.8-1.2l2.7-2.7a12.393,12.393,0,0,0,3.3-5.9l.2-1a11.961,11.961,0,0,1,1.3-3.3A12.378,12.378,0,0,0,37.6,9.6a13.236,13.236,0,0,0-6.5-1.2Z" fill="#5df9e6"/>
    <path id="Path_143" data-name="Path 143" d="M30.6,39.3l-2.7-2.7a12.393,12.393,0,0,1-3.3-5.9l-.2-1a15.068,15.068,0,0,0-1.3-3.3A12.378,12.378,0,0,1,28.6,9.7a12.1,12.1,0,0,1,4.2-1.3h.3A12.491,12.491,0,0,0,20.9,26.5a11.8,11.8,0,0,1,1.2,3.3l.2,1a12.393,12.393,0,0,0,3.3,5.9l2.7,2.7a4.2,4.2,0,0,0,2.8,1.2H33A4.742,4.742,0,0,1,30.6,39.3Z" fill="#fff6f0"/>
    <path id="Path_144" data-name="Path 144" d="M21.5,20.3a2.293,2.293,0,0,0-1.9,1.5,12.174,12.174,0,0,0,1.3,4.6,6.117,6.117,0,0,1,.5,1.2h0c1.3,0,2.3-1.6,2.3-3.7S22.8,20.3,21.5,20.3Z" fill="#f2e8d1"/>
    <path id="Path_145" data-name="Path 145" d="M22.2,20.5a4.592,4.592,0,0,1,.8,2.8c0,1.8-.8,3.3-1.9,3.6.1.3.3.5.4.8h0c1.3,0,2.3-1.6,2.3-3.7A3.933,3.933,0,0,0,22.2,20.5Z" fill="#fff8e9"/>
    <path id="Path_146" data-name="Path 146" d="M21.5,20.3a1.606,1.606,0,0,0-1.1.5,4.129,4.129,0,0,0-.7,1.1h0a13.969,13.969,0,0,0,.9,2.9,5.388,5.388,0,0,0,.7,1.3c.2.4.5.9.7,1.4l-.5-.3a1.77,1.77,0,0,0,1.4-1.1,5.678,5.678,0,0,0,.7-2.2,4.454,4.454,0,0,0-.3-2.3A2.255,2.255,0,0,0,21.5,20.3Zm0,0a2.467,2.467,0,0,1,1.9,1.4,4.815,4.815,0,0,1,.7,2.4,5.278,5.278,0,0,1-.4,2.5,4.44,4.44,0,0,1-.8,1.1,2.389,2.389,0,0,1-1.4.5h-.3l-.2-.3c-.2-.5-.4-.9-.6-1.4a8.8,8.8,0,0,1-.5-1.5,11,11,0,0,1-.4-3.1h0a3.915,3.915,0,0,1,.8-1A1.425,1.425,0,0,1,21.5,20.3Z" fill="#041256"/>
    <path id="Path_147" data-name="Path 147" d="M42.5,20.3a2.293,2.293,0,0,1,1.9,1.5,12.174,12.174,0,0,1-1.3,4.6,6.117,6.117,0,0,0-.5,1.2h0c-1.3,0-2.3-1.6-2.3-3.7S41.2,20.3,42.5,20.3Z" fill="#f2e8d1"/>
    <path id="Path_148" data-name="Path 148" d="M41.8,20.5a4.019,4.019,0,0,0-.8,2.8c0,1.8.8,3.3,1.9,3.6-.1.3-.3.5-.4.8h0c-1.3,0-2.3-1.6-2.3-3.7A3.933,3.933,0,0,1,41.8,20.5Z" fill="#fff8e9"/>
    <path id="Path_149" data-name="Path 149" d="M42.5,20.3h0a1.612,1.612,0,0,1,.4.7,12.174,12.174,0,0,1-1.3,4.6,6.117,6.117,0,0,0-.5,1.2h0a2.143,2.143,0,0,0,1.5.9h0c.2-.4.3-.8.5-1.2a12.174,12.174,0,0,0,1.3-4.6A2.247,2.247,0,0,0,42.5,20.3Z" fill="#5df9e6"/>
    <path id="Path_150" data-name="Path 150" d="M42.5,20.3a1.845,1.845,0,0,1,1.2.5,3.915,3.915,0,0,1,.8,1h0a11.235,11.235,0,0,1-.4,3.2,8.8,8.8,0,0,1-.5,1.5c-.2.5-.4.9-.6,1.4l-.1.3h-.3a2.389,2.389,0,0,1-1.4-.5,2.836,2.836,0,0,1-.8-1.1,5.482,5.482,0,0,1-.4-2.5,7.283,7.283,0,0,1,.7-2.4A2.178,2.178,0,0,1,42.5,20.3Zm0,0a2.178,2.178,0,0,0-1.8,1.4,4.454,4.454,0,0,0-.3,2.3,5.224,5.224,0,0,0,.7,2.1,1.933,1.933,0,0,0,1.4,1.1l-.5.3c.2-.5.5-1,.7-1.4s.5-.9.7-1.3a13.969,13.969,0,0,0,.9-2.9h0a4.129,4.129,0,0,0-.7-1.1A1.29,1.29,0,0,0,42.5,20.3Z" fill="#041256"/>
    <path id="Path_151" data-name="Path 151" d="M41.6,30.7l.2-1a11.961,11.961,0,0,1,1.3-3.3,12.433,12.433,0,1,0-22.2.1,11.8,11.8,0,0,1,1.2,3.3l.2,1a12.393,12.393,0,0,0,3.3,5.9l2.7,2.7a4.2,4.2,0,0,0,2.8,1.2" fill="none" stroke="#041256" stroke-linecap="round" stroke-miterlimit="10" stroke-width="2"/>
    <path id="Path_152" data-name="Path 152" d="M31.2,40.5h1.6a3.784,3.784,0,0,0,2.8-1.2l2.7-2.7a12.393,12.393,0,0,0,3.3-5.9" fill="none" stroke="#041256" stroke-linecap="round" stroke-miterlimit="10" stroke-width="2"/>
    <path id="Path_153" data-name="Path 153" d="M30.9,36.7a1.1,1.1,0,0,0,2.2,0H30.9Z" fill="#edd2c0"/>
    <path id="Path_154" data-name="Path 154" d="M33.3,32.7l-.8.4h0L32,33l-.5.1h0l-.8-.4-.4.2.4.5a1.794,1.794,0,0,0,.7.5l.6.3.6-.3a1.794,1.794,0,0,0,.7-.5l.4-.5Z" fill="#edd2c0"/>
    <path id="Path_155" data-name="Path 155" d="M33.2,35l-1.2.3L30.8,35l-1,.2a3.139,3.139,0,0,0,4.4,0Z" fill="#f7ad9f"/>
    <path id="Path_156" data-name="Path 156" d="M32.9,34.5c-.3-.2-.9.2-.9.2s-.6-.4-.9-.2a15.616,15.616,0,0,1-1.7.7l.5.1.6-.1,1.5.4,1.5-.4.6.1.5-.1A9.759,9.759,0,0,0,32.9,34.5Z" fill="#f7ad9f"/>
    <path id="Path_157" data-name="Path 157" d="M32,33.4a.9.9,0,0,1-.5-.1c-.1-.1-.3-.2-.4-.3l-.4-.3c-.1-.1-.2,0-.4.1.1-.1.2-.3.4-.2l.4.2a.6.6,0,0,0,.4.1h.4Z" fill="#041256"/>
    <path id="Path_158" data-name="Path 158" d="M33.6,32.9c-.1-.1-.3-.2-.4-.1l-.3.2c-.1.1-.3.2-.4.3a.9.9,0,0,1-.5.1v-.5h.4c.1,0,.3-.1.4-.1l.4-.2C33.4,32.6,33.5,32.8,33.6,32.9Z" fill="#041256"/>
    <path id="Path_159" data-name="Path 159" d="M29.1,35.1h.8l.8-.1h1.2a.2.2,0,0,1,0,.4h-.1l-1.2-.3H29.1Z" fill="#041256"/>
    <path id="Path_160" data-name="Path 160" d="M34.9,35.1l-.8.2h-.8l-1.2.3c-.1,0-.3-.1-.3-.2s.1-.2.2-.3h0l1.2-.1h0l.8.1Z" fill="#041256"/>
    <path id="Path_161" data-name="Path 161" d="M30.9,36.6a4.1,4.1,0,0,1,1.1-.1,3.75,3.75,0,0,1,1.1.1A4.108,4.108,0,0,1,30.9,36.6Z" fill="#041256"/>
    <circle id="Ellipse_8" data-name="Ellipse 8" cx="0.8" cy="0.8" r="0.8" transform="translate(26.7 26.7)" fill="#041256"/>
    <path id="Path_162" data-name="Path 162" d="M30.2,26.6c-.3-.1-.6-.3-.9-.4a2.485,2.485,0,0,0-.8-.1h0a9.971,9.971,0,0,1-1.6-.2,8.8,8.8,0,0,1-1.5-.5,8.752,8.752,0,0,1,1.6-.2,7.719,7.719,0,0,1,1.5.2h0a1.777,1.777,0,0,1,1,.4C29.8,26.1,30,26.4,30.2,26.6Z" fill="#041256"/>
    <circle id="Ellipse_9" data-name="Ellipse 9" cx="0.8" cy="0.8" r="0.8" transform="translate(35.5 26.7)" fill="#041256"/>
    <path id="Path_163" data-name="Path 163" d="M33.6,26.6a5.008,5.008,0,0,1,.7-.8,3,3,0,0,1,1-.4h0a5.853,5.853,0,0,1,1.3-.2,5.283,5.283,0,0,1,1.3.1,6.117,6.117,0,0,1-1.2.5,5.853,5.853,0,0,1-1.3.2h0a1.949,1.949,0,0,0-.8.1A1.905,1.905,0,0,1,33.6,26.6Z" fill="#041256"/>
    <path id="Path_164" data-name="Path 164" d="M39.5,56s-.6-2.3,3-6.2c0,0-6.9-7.2-2.5-14.5a32.555,32.555,0,0,0,3.6-10.9l1.9,3.3a10.9,10.9,0,0,1-.6,10.5c-3.3,5.3,7.2,6.9,3.4,14,0,0,2.2,1.9,2,3.8" fill="#f2e8d1"/>
    <path id="Path_165" data-name="Path 165" d="M50.4,55.8a3.529,3.529,0,0,0-.3-1.4c-.1.2-.2.5-.3.7A4.35,4.35,0,0,1,50.4,55.8Z" fill="#fff8e9"/>
    <path id="Path_166" data-name="Path 166" d="M49.3,48.6c-.3-2.3-2.2-3.9-3.6-5.6C45.7,45.1,47.8,46.7,49.3,48.6Z" fill="#fff8e9"/>
    <path id="Path_167" data-name="Path 167" d="M41.3,38.2a32.555,32.555,0,0,0,3.6-10.9l1.3,2.2a13.355,13.355,0,0,0-.7-1.8l-1.9-3.3a32.74,32.74,0,0,1-3.7,10.9c-2.7,4.5-1.2,8.8.4,11.6A10.625,10.625,0,0,1,41.3,38.2Z" fill="#fff8e9"/>
    <path id="Path_168" data-name="Path 168" d="M44.4,28.9a11.164,11.164,0,0,1-.5,10.5c-3.3,5.3,7.2,6.9,3.4,14A6.765,6.765,0,0,1,49.1,56h1.4c.2-1.9-2-3.8-2-3.8,3.8-7.1-6.7-8.7-3.4-14a11.164,11.164,0,0,0,.5-10.5l-1.9-3.3a15.191,15.191,0,0,1-.5,2.4Z" fill="#5df9e6"/>
    <path id="Path_169" data-name="Path 169" d="M43.8,52.7A13.015,13.015,0,0,1,42,50.4c-3,3.6-2.5,5.7-2.5,5.7h1.9A10.458,10.458,0,0,1,43.8,52.7Z" fill="#fff8e9"/>
    <path id="Path_170" data-name="Path 170" d="M45,38.2a4,4,0,0,0-.2,1.9,2.628,2.628,0,0,0,.7,1.5A17.411,17.411,0,0,0,46.7,43a18.479,18.479,0,0,0,1.4,1.4,7.483,7.483,0,0,1,2.1,3.9,6,6,0,0,1-.2,2.3,7.218,7.218,0,0,1-.9,2l-.1-.9a3.592,3.592,0,0,1,.7,1,3.128,3.128,0,0,1,.5,1,3.059,3.059,0,0,1,.1,2.3,4.751,4.751,0,0,0-.9-1.9c-.2-.3-.5-.5-.7-.8a2.407,2.407,0,0,0-.8-.6l-.4-.3.2-.6a8.447,8.447,0,0,0,.5-1.7,4.3,4.3,0,0,0,0-1.6,7.526,7.526,0,0,0-1.7-3,15.646,15.646,0,0,1-2.3-3.4A4.713,4.713,0,0,1,44,40,4,4,0,0,1,45,38.2Z" fill="#041256"/>
    <path id="Path_171" data-name="Path 171" d="M39.5,56a5.438,5.438,0,0,1,0-1.8,6.356,6.356,0,0,1,.6-1.8,8.272,8.272,0,0,1,.9-1.6,14.309,14.309,0,0,1,1.1-1.5v.9a15.751,15.751,0,0,1-3.8-6,11.4,11.4,0,0,1-.5-5.5l.2-.9.3-.9a8.865,8.865,0,0,1,.8-1.7c.3-.6.5-1,.8-1.5.5-1,1-2,1.4-3a47.46,47.46,0,0,0,2-6.4l.3-1.1.5,1c.5,1.1,1.1,2.3,1.6,3.5-.8-1-1.5-2-2.3-3l.8-.1a31.43,31.43,0,0,1-1.3,6.8c-.4,1.1-.8,2.2-1.3,3.3-.2.5-.6,1.1-.8,1.5a3.506,3.506,0,0,0-.6,1.4l-.2.7-.3.7c-.1.5-.1,1-.2,1.5a11.151,11.151,0,0,0,.5,3.1,15.633,15.633,0,0,0,3,5.7l.4.5-.4.4-1.2,1.2a11.319,11.319,0,0,0-1,1.3,10.93,10.93,0,0,0-.8,1.5A4.075,4.075,0,0,0,39.5,56Z" fill="#041256"/>
    <path id="Path_172" data-name="Path 172" d="M45.6,27.7a6.419,6.419,0,0,1,1.2,2.5,6.548,6.548,0,0,1,.3,2.8,6.71,6.71,0,0,1-.6,2.8A9.737,9.737,0,0,1,45,38.2a25.825,25.825,0,0,0,.8-2.6,11.529,11.529,0,0,0,.3-2.6A18.72,18.72,0,0,0,45.6,27.7Z" fill="#041256"/>
    <path id="Path_173" data-name="Path 173" d="M24.5,56s.6-2.3-3-6.2c0,0,6.9-7.2,2.5-14.5a32.555,32.555,0,0,1-3.6-10.9l-1.9,3.3a10.9,10.9,0,0,0,.6,10.5c3.3,5.3-7.2,6.9-3.4,14,0,0-2.1,1.9-1.9,3.8" fill="#f2e8d1"/>
    <path id="Path_174" data-name="Path 174" d="M13.6,56h1.7a7.5,7.5,0,0,1,1.8-2.8c-3.8-7.1,6.7-8.7,3.4-14a11.464,11.464,0,0,1-.6-10.5l.9-1.5a22.429,22.429,0,0,1-.5-2.8l-1.9,3.3A10.9,10.9,0,0,0,19,38.2c3.3,5.3-7.2,6.9-3.4,14C15.5,52.2,13.4,54.1,13.6,56Z" fill="#fff8e9"/>
    <path id="Path_175" data-name="Path 175" d="M13.6,55.8a3.529,3.529,0,0,1,.3-1.4c.1.2.2.5.3.7A4.349,4.349,0,0,0,13.6,55.8Z" fill="#fff8e9"/>
    <path id="Path_176" data-name="Path 176" d="M14.7,48.6c.3-2.3,2.2-3.9,3.6-5.6C18.3,45.1,16.2,46.7,14.7,48.6Z" fill="#fff8e9"/>
    <path id="Path_177" data-name="Path 177" d="M22.7,38.2a32.555,32.555,0,0,1-3.6-10.9l-1.3,2.2a13.355,13.355,0,0,1,.7-1.8l1.9-3.3A34.962,34.962,0,0,0,24,35.3c2.7,4.5,1.2,8.8-.4,11.6A10.234,10.234,0,0,0,22.7,38.2Z" fill="#fff8e9"/>
    <path id="Path_178" data-name="Path 178" d="M18.4,27.7a23.278,23.278,0,0,0-.6,5.3,11.529,11.529,0,0,0,.3,2.6,25.824,25.824,0,0,0,.8,2.6,6.08,6.08,0,0,1-1.5-2.4,7.059,7.059,0,0,1-.6-2.8,12.65,12.65,0,0,1,.3-2.8A9.859,9.859,0,0,1,18.4,27.7Z" fill="#041256"/>
    <path id="Path_179" data-name="Path 179" d="M20.2,52.7A13.015,13.015,0,0,0,22,50.4c3,3.6,2.5,5.7,2.5,5.7H22.6A10.458,10.458,0,0,0,20.2,52.7Z" fill="#fff8e9"/>
    <path id="Path_180" data-name="Path 180" d="M19,38.2A4,4,0,0,1,20,40a4.086,4.086,0,0,1-.3,2.2,18.5,18.5,0,0,1-2.3,3.4,7.3,7.3,0,0,0-1.6,3,8.6,8.6,0,0,0-.1,1.6,10.927,10.927,0,0,0,.5,1.7l.2.6-.4.3a5.547,5.547,0,0,1-.8.6,2.7,2.7,0,0,0-.7.8,3.379,3.379,0,0,0-.9,1.9,3.043,3.043,0,0,1,.2-2.3,3.328,3.328,0,0,1,.6-1,8.65,8.65,0,0,1,.7-1l-.2.9a7.218,7.218,0,0,1-.9-2,4.5,4.5,0,0,1-.1-2.3A7.483,7.483,0,0,1,16,44.5l1.4-1.4a14.2,14.2,0,0,0,1.2-1.3,2.966,2.966,0,0,0,.7-1.5A6.229,6.229,0,0,0,19,38.2Z" fill="#041256"/>
    <path id="Path_181" data-name="Path 181" d="M24.5,56a3.287,3.287,0,0,0-.4-1.7,10.93,10.93,0,0,0-.8-1.5,6.42,6.42,0,0,0-1-1.3l-1.2-1.2-.4-.4.4-.5a15.633,15.633,0,0,0,3-5.7,15.44,15.44,0,0,0,.5-3.1,9.971,9.971,0,0,0-.2-1.6l-.1-.8-.2-.7c-.2-.5-.4-1-.6-1.4s-.6-1-.8-1.5c-.5-1.1-.9-2.2-1.3-3.3a26.244,26.244,0,0,1-1.2-6.8l.8.1c-.7,1-1.5,2-2.3,3,.5-1.2,1-2.3,1.6-3.5l.5-1,.3,1.1a47.46,47.46,0,0,0,2,6.4c.4,1,.9,2,1.4,3,.3.5.5.9.8,1.5a8.865,8.865,0,0,1,.8,1.7l.3.9.2.9a11.51,11.51,0,0,1-.5,5.5,15.751,15.751,0,0,1-3.8,6v-.9c.4.5.7,1,1.1,1.5.3.5.6,1.1.9,1.7a9.5,9.5,0,0,1,.6,1.8C24.7,54.8,24.7,55.4,24.5,56Z" fill="#041256"/>
    <path id="Path_182" data-name="Path 182" d="M38.7,15.5s-6.1,4.6-15.5,2c0,0,.4,5.8-3,7.9,0,0-4-8.7-.8-10.3,0,0,.8-7.2,12.4-7.2s12.3,7,12.3,7,4.2,3-.9,10.5c0,0-1.6-3.8-1.2-5.8S38.7,15.5,38.7,15.5Z" fill="#f2e8d1"/>
    <path id="Path_183" data-name="Path 183" d="M34.7,8.2a8.083,8.083,0,0,0-1.6-.1,11.21,11.21,0,0,1,3.6.9A10.4,10.4,0,0,0,34.7,8.2Z" fill="#5df9e6"/>
    <path id="Path_184" data-name="Path 184" d="M44.2,15s-.5-4-5.7-6c4.5,2,4.8,5.6,4.8,5.6s3.9,2.9-.4,9.8c.2.6.4,1.1.4,1.1C48.3,18.1,44.2,15,44.2,15Z" fill="#5df9e6"/>
    <path id="Path_185" data-name="Path 185" d="M21.1,18s.8-7.2,12.3-7.2c5.8,0,8.8,1.8,10.5,3.5C43.4,12.6,41.1,8,31.8,8c-11.6,0-12.4,7.1-12.4,7.1-3.2,1.6.8,10.3.8,10.3a1.756,1.756,0,0,0,.5-.4C19.9,22.4,19.2,18.9,21.1,18Z" fill="#fff8e9"/>
    <path id="Path_186" data-name="Path 186" d="M45.6,17.4A4.523,4.523,0,0,0,44.2,15h0c-1.8-1.5-4.8-2.8-9.8-2.8C22.8,12.2,22,19.3,22,19.3c-1,.5-1.3,1.7-1.2,3.2A2.466,2.466,0,0,1,22,20.2s.8-7.1,12.4-7.1C41.1,13,44.2,15.4,45.6,17.4Z" fill="#fff8e9"/>
    <path id="Path_187" data-name="Path 187" d="M45.4,16.8a4.728,4.728,0,0,0-.7-1.2A18.04,18.04,0,0,0,36.8,14c-6.4,0-9.5,2.2-11,4.1.2,0,.4.1.6.1,1.7-1.7,4.8-3.4,10.3-3.4A16.579,16.579,0,0,1,45.4,16.8Z" fill="#fff8e9"/>
    <path id="Path_188" data-name="Path 188" d="M20.2,25.5a22.818,22.818,0,0,1-2.1-5.1,9.246,9.246,0,0,1-.4-2.9,4.529,4.529,0,0,1,.3-1.6,2.365,2.365,0,0,1,1.2-1.4l-.4.6a8.387,8.387,0,0,1,5.1-6.4A16.567,16.567,0,0,1,31.8,7a18.04,18.04,0,0,1,7.9,1.6A8.9,8.9,0,0,1,44.9,15l-.3-.5a5.581,5.581,0,0,1,1.6,2.9,6.51,6.51,0,0,1-.1,3.1,5.782,5.782,0,0,1-.5,1.4,5.388,5.388,0,0,1-.7,1.3c-.3.4-.5.8-.8,1.2l-.9,1.2.7-1.3c.2-.4.4-.9.6-1.3a5.733,5.733,0,0,0,.4-1.4c.1-.4.2-.9.3-1.4a6.2,6.2,0,0,0-.2-2.7,3.9,3.9,0,0,0-1.3-2l-.2-.2-.1-.3a6.569,6.569,0,0,0-1.7-2.9,8.373,8.373,0,0,0-2.9-2,17.424,17.424,0,0,0-7.1-1.2,17.223,17.223,0,0,0-7.1,1.3,9.423,9.423,0,0,0-2.9,2,5.872,5.872,0,0,0-1.6,3l-.1.4-.3.1a2.062,2.062,0,0,0-1,1.7,11.109,11.109,0,0,0,.1,2.6A44.185,44.185,0,0,0,20.2,25.5Z" fill="#041256"/>
    <path id="Path_189" data-name="Path 189" d="M43.3,25.6A12.638,12.638,0,0,1,42,23a6.252,6.252,0,0,1-.4-3,2.94,2.94,0,0,0-.9-2.2c-.6-.7-1.3-1.4-2-2.1a8.214,8.214,0,0,1,2.5,1.6,5.8,5.8,0,0,1,1,1.2,1.135,1.135,0,0,1,.3.8v.9a8.223,8.223,0,0,0,.2,2.7Z" fill="#041256"/>
    <path id="Path_190" data-name="Path 190" d="M38.7,15.5a15.126,15.126,0,0,1-3.5,2,18.226,18.226,0,0,1-4,1.1,18.751,18.751,0,0,1-4.1.1,17.735,17.735,0,0,1-4-.8l.6-.5a8.954,8.954,0,0,1-.2,2.3,14.191,14.191,0,0,1-.5,2.2,7.814,7.814,0,0,1-1.1,2,6.122,6.122,0,0,1-1.7,1.5,7,7,0,0,0,1.4-1.6,11.919,11.919,0,0,0,.8-2,15.525,15.525,0,0,0,.4-2.1V17l.6.1c.6.1,1.3.3,1.9.4a12.31,12.31,0,0,0,2,.2,25.387,25.387,0,0,0,3.9,0,16.058,16.058,0,0,0,3.8-.8A10.462,10.462,0,0,0,38.7,15.5Z" fill="#041256"/>
    <line id="Line_1" data-name="Line 1" x2="48" transform="translate(8 56)" fill="none" stroke="#041256" stroke-linecap="round" stroke-miterlimit="10" stroke-width="2"/>
  </g>
</svg>
