<svg xmlns="http://www.w3.org/2000/svg" width="47.131" height="47.394" viewBox="0 0 47.131 47.394">
  <g id="flame-ice" transform="translate(-8.74 -8.547)">
    <path id="Path_1" data-name="Path 1" d="M18.17,14.41,10.78,11l3.39,7.34a29.4,29.4,0,0,1,2.65,8.34,8.57,8.57,0,1,0,14.55-7.22,8.43,8.43,0,0,0-4.27-2.32,41.38,41.38,0,0,1-8.93-2.73Z" fill="#ea8039"/>
    <path id="Path_2" data-name="Path 2" d="M26.61,22.84A2.81,2.81,0,0,0,24.76,22a2.66,2.66,0,0,1,.53,1.16,9.71,9.71,0,0,1-2-.62l-1.83-.84.84,1.81a7.28,7.28,0,0,1,.64,2h0A2.85,2.85,0,0,1,21.8,25a2.81,2.81,0,0,0,4.79,1.84h0a2.8,2.8,0,0,0,.02-4Z" fill="#e2762d"/>
    <path id="Path_3" data-name="Path 3" d="M19.64,28.73A29.59,29.59,0,0,0,17,20.39L13.61,13,21,16.45a42,42,0,0,0,8.94,2.74,8.65,8.65,0,0,1,1.68.54c-.08-.08-.15-.18-.24-.26a8.43,8.43,0,0,0-4.27-2.32,41.38,41.38,0,0,1-8.93-2.74L10.78,11l3.39,7.34a29.4,29.4,0,0,1,2.65,8.34,8.6,8.6,0,0,0,4,6.16,8.12,8.12,0,0,0,1.05.56A8.56,8.56,0,0,1,19.64,28.73Z" fill="#5df9e6"/>
    <path id="Path_4" data-name="Path 4" d="M23.34,32.8a8.57,8.57,0,0,1-4-6.16,29.29,29.29,0,0,0-2.65-8.34L14,12.5,10.78,11l3.39,7.34a29.4,29.4,0,0,1,2.65,8.34A8.58,8.58,0,0,0,26.72,34,8.43,8.43,0,0,1,23.34,32.8Z" fill="#f7ac4b"/>
    <path id="Path_5" data-name="Path 5" d="M22.46,33a8.58,8.58,0,0,1-4-6.16,29.4,29.4,0,0,0-2.65-8.34l-3-6.56-2-.92,3.39,7.34a29.4,29.4,0,0,1,2.65,8.34,8.6,8.6,0,0,0,4,6.16,8.46,8.46,0,0,0,4.55,1.27A8.36,8.36,0,0,1,22.46,33Z" fill="#ffd19f"/>
    <path id="Path_6" data-name="Path 6" d="M29.82,18.27A11.33,11.33,0,0,1,12,24.19a11.33,11.33,0,0,0,19.34,7.45l.08-.09.33-.36a8.57,8.57,0,0,0-.37-11.72,8.05,8.05,0,0,0-1.56-1.2Z" fill="#f7ac4b"/>
    <path id="Path_7" data-name="Path 7" d="M18,30.05a11.34,11.34,0,0,0,6-17.84,11.33,11.33,0,0,1,7.44,19.34l-.09.08c-.11.12-.24.22-.36.33a8.57,8.57,0,0,1-11.72-.36A9.2,9.2,0,0,1,18,30.05Z" fill="#f7ac4b"/>
    <path id="Path_8" data-name="Path 8" d="M27.1,17.15l-1-.22a.09.09,0,0,0,0,.05A11.3,11.3,0,0,1,18,30.05a8.92,8.92,0,0,0,.73,1c.15.18.3.36.48.54h0c.21.21.44.41.68.61l.3.22.4.28A8.57,8.57,0,0,0,31,32l.1-.09.4-.37.13-.14a8.57,8.57,0,0,0-.22-11.89,8.43,8.43,0,0,0-4.31-2.36Z" fill="#ea8039"/>
    <path id="Path_9" data-name="Path 9" d="M17,31.39a11.24,11.24,0,0,1-3.12-6A11.46,11.46,0,0,1,12,24.19,11.31,11.31,0,0,0,25.8,34.68,11.31,11.31,0,0,1,17,31.39Z" fill="#ffd19f"/>
    <path id="Path_10" data-name="Path 10" d="M31.67,17.2a11.27,11.27,0,0,1,3,5.48A11.31,11.31,0,0,0,24,12.21,12.34,12.34,0,0,1,25.09,14a11.24,11.24,0,0,1,6.58,3.2Z" fill="#5df9e6"/>
    <path id="Path_11" data-name="Path 11" d="M27.69,27.21l-1.3-.6.6,1.3a5.29,5.29,0,0,1,.46,1.46,1.52,1.52,0,0,0,.71,1.09,1.48,1.48,0,0,0,1.59,0,1.51,1.51,0,0,0-.49-2.75,7.13,7.13,0,0,1-1.57-.5Z" fill="#f7ac4b"/>
    <path id="Path_12" data-name="Path 12" d="M23.31,36A12.33,12.33,0,0,1,11,24.24l-.11-2.17L12.6,23.4A10,10,0,0,0,15.48,25a31.68,31.68,0,0,0-2.22-6.19L8.74,9l9.84,4.55a35.84,35.84,0,0,0,6.11,2.07,10.11,10.11,0,0,0-1.51-2.75L21.85,11.1l2.17.12a12.33,12.33,0,0,1,8.1,3.58h0a12.43,12.43,0,0,1,.2,17.25l-.28.29A12.23,12.23,0,0,1,23.31,36Zm-10-9.76a10.34,10.34,0,0,0,17.32,4.73l.24-.26A10.33,10.33,0,0,0,26,13.52a12.66,12.66,0,0,1,1.11,3.22l.3,1.5-1.5-.33a40.28,40.28,0,0,1-8.14-2.59l-4.92-2.27,2.25,4.88a30.56,30.56,0,0,1,2.67,8.26L18,27.56l-1.45-.25A12.46,12.46,0,0,1,13.3,26.2Z" fill="#041256"/>
    <path id="Path_13" data-name="Path 13" d="M28.68,23a11.19,11.19,0,0,0,2.47-3.73,9,9,0,0,0-1.33-1,11.26,11.26,0,0,1-8.4,8A11.24,11.24,0,0,0,28.68,23Z" fill="#ffd19f"/>
    <path id="Path_14" data-name="Path 14" d="M26.93,23.24A12.42,12.42,0,0,1,22,26.77a9.78,9.78,0,0,1-6.36.34h0a1.014,1.014,0,0,1,.62-1.93l.16.06a8.17,8.17,0,0,0,5.35.57,12,12,0,0,0,5.16-2.57Z" fill="#041256"/>
    <path id="Path_15" data-name="Path 15" d="M26.9,15.91a5.38,5.38,0,0,1,.18,2.37,7.62,7.62,0,0,1-.64,2.06,5,5,0,0,0-1.3-3.48,1.054,1.054,0,1,1,1.43-1.55,1,1,0,0,1,.29.46Z" fill="#041256"/>
    <path id="Path_16" data-name="Path 16" d="M10.34,18.66a.62.62,0,1,1-.87,0,.62.62,0,0,1,.87,0Z" fill="#f7ac4b"/>
    <path id="Path_17" data-name="Path 17" d="M9.17,21.13a.23.23,0,1,1-.33,0,.24.24,0,0,1,.33,0Z" fill="#f7ac4b"/>
    <circle id="Ellipse_1" data-name="Ellipse 1" cx="0.48" cy="0.48" r="0.48" transform="translate(12.29 21.09)" fill="#f7ac4b"/>
    <path id="Path_18" data-name="Path 18" d="M11.45,20.92a.21.21,0,0,1,0,.29.22.22,0,0,1-.3,0,.21.21,0,0,1,0-.29.22.22,0,0,1,.3,0Z" fill="#f7ac4b"/>
    <path id="Path_19" data-name="Path 19" d="M12,18.87a.19.19,0,1,1-.27,0A.2.2,0,0,1,12,18.87Z" fill="#f7ac4b"/>
    <path id="Path_20" data-name="Path 20" d="M20.64,11.28a.53.53,0,1,1-.375-.155A.53.53,0,0,1,20.64,11.28Z" fill="#f7ac4b"/>
    <path id="Path_21" data-name="Path 21" d="M17.74,12a.15.15,0,1,1-.21,0,.14.14,0,0,1,.21,0Z" fill="#f7ac4b"/>
    <circle id="Ellipse_2" data-name="Ellipse 2" cx="0.22" cy="0.22" r="0.22" transform="translate(19.32 12.91)" fill="#f7ac4b"/>
    <path id="Path_22" data-name="Path 22" d="M21.1,8.66a.38.38,0,1,1-.27-.113A.38.38,0,0,1,21.1,8.66Z" fill="#f7ac4b"/>
    <path id="Path_23" data-name="Path 23" d="M29.68,40.05l5.99,5.98,8.17-2.19,2.19-8.17-5.98-5.99-8.18,2.19Z" fill="#8ec6f4"/>
    <path id="Path_24" data-name="Path 24" d="M46.03,35.67l-5.98-5.99-8.18,2.19L43.84,43.84Z" fill="#74b3ed"/>
    <path id="Path_25" data-name="Path 25" d="M38.68,30.05l5.92,5.92-1.82,6.81,1.06,1.06,2.19-8.17-5.98-5.99Z" fill="#5df9e6"/>
    <path id="Path_26" data-name="Path 26" d="M29.68,40.05l8.18-2.19,2.19-8.18-8.18,2.19Z" fill="#b8e2ff"/>
    <path id="Path_27" data-name="Path 27" d="M31.22,39.65l2.19-8.18,6.65-1.78-.01-.01-8.18,2.19-2.19,8.18,5.99,5.98,1.53-.41Z" fill="#d9f1ff"/>
    <path id="Path_28" data-name="Path 28" d="M35.67,47a1,1,0,0,1-.71-.29l-6-6a1,1,0,0,1-.26-1l2.19-8.17a1,1,0,0,1,.71-.71l8.17-2.19a1,1,0,0,1,1,.26l6,6a1,1,0,0,1,.26,1l-2.22,8.2a1,1,0,0,1-.71.71L35.93,47ZM30.8,39.75,36,44.92,43,43l1.92-7-5.17-5.2-7.06,1.89Z" fill="#041256"/>
    <path id="Path_29" data-name="Path 29" d="M50.35,51.35a1,1,0,0,1-.7-.29l-6.52-6.51a1,1,0,1,1,1.42-1.42l6.51,6.52a1,1,0,0,1-.71,1.7Z" fill="#041256"/>
    <path id="Path_30" data-name="Path 30" d="M47.23,50.82a1,1,0,0,1-1-1V47.23a1,1,0,0,1,1-1h2.59a1,1,0,0,1,0,2H48.23v1.59A1,1,0,0,1,47.23,50.82Z" fill="#041256"/>
    <path id="Path_31" data-name="Path 31" d="M44.43,49.06a1,1,0,0,1-1-1V44.43a1,1,0,0,1,1-1h3.63a1,1,0,0,1,0,2H45.43v2.63A1,1,0,0,1,44.43,49.06Z" fill="#041256"/>
    <path id="Path_32" data-name="Path 32" d="M20.79,43.43a1,1,0,0,1-1-.74,1.15,1.15,0,0,1,0-.26,1,1,0,0,1,.74-1l8.89-2.39a1,1,0,0,1,1.23.71,1.15,1.15,0,0,1,0,.26,1,1,0,0,1-.74,1L21.05,43.4A1.15,1.15,0,0,1,20.79,43.43Z" fill="#041256"/>
    <path id="Path_33" data-name="Path 33" d="M23.76,44.53A1.005,1.005,0,0,1,22.9,43l.79-1.38-1.37-.79a1,1,0,0,1,1.05-1.7l2.24,1.29a1,1,0,0,1,.37,1.37L24.63,44A1,1,0,0,1,23.76,44.53Z" fill="#041256"/>
    <path id="Path_34" data-name="Path 34" d="M27.06,44.41a1,1,0,0,1-.86-1.5l1.31-2.28-2.27-1.31a1,1,0,0,1,1-1.74l3.14,1.82a1.01,1.01,0,0,1,.37,1.36l-1.82,3.15A1,1,0,0,1,27.06,44.41Z" fill="#041256"/>
    <path id="Path_35" data-name="Path 35" d="M46,36.67a1,1,0,0,1-1-.74.82.82,0,0,1,0-.26,1,1,0,0,1,.74-1l8.9-2.38a1,1,0,0,1,1.22.71.75.75,0,0,1,0,.26,1,1,0,0,1-.75,1l-8.89,2.38A.78.78,0,0,1,46,36.67Z" fill="#041256"/>
    <path id="Path_36" data-name="Path 36" d="M52.9,36.72a1,1,0,0,1-.5-.13l-2.24-1.3a1,1,0,0,1-.37-1.36l1.29-2.24a1,1,0,0,1,1.74,1L52,34.06l1.38.8a1,1,0,0,1-.5,1.86Z" fill="#041256"/>
    <path id="Path_37" data-name="Path 37" d="M50,38.27a1,1,0,0,1-.5-.14l-3.14-1.81A1,1,0,0,1,46,35l1.82-3.14a1,1,0,1,1,1.73,1L48.2,35.09l2.28,1.31a1,1,0,0,1-.5,1.87Z" fill="#041256"/>
    <path id="Path_38" data-name="Path 38" d="M33.29,55.93a.75.75,0,0,1-.26,0,1,1,0,0,1-.74-1,1.09,1.09,0,0,1,0-.26l2.38-8.9a1.008,1.008,0,1,1,2,.26.78.78,0,0,1,0,.26l-2.38,8.89A1,1,0,0,1,33.29,55.93Z" fill="#041256"/>
    <path id="Path_39" data-name="Path 39" d="M35.72,53.9a1,1,0,0,1-.86-.5l-.8-1.4-1.37.8a1,1,0,0,1-1-1.74l2.24-1.29a1,1,0,0,1,1.36.37l1.3,2.24a1,1,0,0,1-.37,1.36.9.9,0,0,1-.5.16Z" fill="#041256"/>
    <path id="Path_40" data-name="Path 40" d="M37.27,51a1,1,0,0,1-.87-.5l-1.31-2.3-2.28,1.32a1,1,0,1,1-1-1.73L35,46a1,1,0,0,1,1.37.37l1.81,3.14a1,1,0,0,1-.86,1.5Z" fill="#041256"/>
    <path id="Path_41" data-name="Path 41" d="M40.05,30.68a1.15,1.15,0,0,1-.26,0,1,1,0,0,1-.74-1,1.07,1.07,0,0,1,0-.25l2.39-8.9a1.008,1.008,0,0,1,2,.26,1.15,1.15,0,0,1,0,.26L41,29.94a1,1,0,0,1-.95.74Z" fill="#041256"/>
    <path id="Path_42" data-name="Path 42" d="M41.29,26.06a1,1,0,0,1-.87-.5l-1.29-2.24a1,1,0,1,1,1.73-1l.79,1.37L43,22.9a1,1,0,1,1,1,1.73l-2.24,1.3A1,1,0,0,1,41.29,26.06Z" fill="#041256"/>
    <path id="Path_43" data-name="Path 43" d="M40.26,29.88a1,1,0,0,1-.86-.5l-1.82-3.14a1,1,0,1,1,1.74-1l1.31,2.27,2.28-1.31a1,1,0,0,1,1,1.73l-3.15,1.81a.9.9,0,0,1-.5.14Z" fill="#041256"/>
    <path id="Path_44" data-name="Path 44" d="M40.63,52.51l-.64-.64-.87.23-.24.88.64.64.88-.24Z" fill="#8ec6f4"/>
    <path id="Path_45" data-name="Path 45" d="M42.13,48.48l-.64-.64-.88.23-.23.88.64.64.87-.24Z" fill="#8ec6f4"/>
    <path id="Path_46" data-name="Path 46" d="M43.34,51.98l-.32-.32-.44.12-.12.44.32.32.44-.12Z" fill="#8ec6f4"/>
    <path id="Path_47" data-name="Path 47" d="M26.28,47.26l.26-.87-.62-.66-.88.21-.26.87.62.66Z" fill="#8ec6f4"/>
    <path id="Path_48" data-name="Path 48" d="M30.54,46.66l.26-.87-.62-.66-.89.21-.26.87.63.66Z" fill="#8ec6f4"/>
    <path id="Path_49" data-name="Path 49" d="M28.03,49.39l.13-.43-.31-.33-.44.1-.14.43.32.33Z" fill="#8ec6f4"/>
    <path id="Path_50" data-name="Path 50" d="M49.44,28.46l-.27.87.63.66.88-.21.26-.87-.62-.66Z" fill="#8ec6f4"/>
    <path id="Path_51" data-name="Path 51" d="M45.18,29.06l-.26.87.62.66.88-.21.26-.87-.62-.66Z" fill="#8ec6f4"/>
    <path id="Path_52" data-name="Path 52" d="M47.69,26.33l-.13.43.31.33.44-.1.13-.44-.31-.33Z" fill="#8ec6f4"/>
    <path id="Path_53" data-name="Path 53" d="M52.51,40.63l-.64-.64.23-.87.88-.24.64.64-.24.88Z" fill="#8ec6f4"/>
    <path id="Path_54" data-name="Path 54" d="M48.48,42.13l-.64-.64.23-.88.88-.23.64.64-.24.87Z" fill="#8ec6f4"/>
    <path id="Path_55" data-name="Path 55" d="M51.98,43.34l-.32-.32.12-.44.44-.12.32.32-.12.44Z" fill="#8ec6f4"/>
    <circle id="Ellipse_3" data-name="Ellipse 3" cx="0.74" cy="0.74" r="0.74" transform="translate(9.3 31.42)" fill="#f7ac4b"/>
    <path id="Path_56" data-name="Path 56" d="M13.87,36.22a.55.55,0,1,1-.55-.55.55.55,0,0,1,.55.55Z" fill="#f7ac4b"/>
    <path id="Path_57" data-name="Path 57" d="M13.32,33.56a.28.28,0,1,1-.12-.286.28.28,0,0,1,.12.286Z" fill="#f7ac4b"/>
    <path id="Path_58" data-name="Path 58" d="M11.09,36.2a.53.53,0,1,1-.52-.53.52.52,0,0,1,.52.53Z" fill="#f7ac4b"/>
    <path id="Path_59" data-name="Path 59" d="M17.78,36.6a.88.88,0,1,1-.88-.88.88.88,0,0,1,.88.88Z" fill="#f7ac4b"/>
    <path id="Path_60" data-name="Path 60" d="M16.9,39.86a.44.44,0,1,1-.44-.44.44.44,0,0,1,.44.44Z" fill="#f7ac4b"/>
    <path id="Path_61" data-name="Path 61" d="M20.86,37.56a.3.3,0,1,1-.3-.29A.3.3,0,0,1,20.86,37.56Z" fill="#f7ac4b"/>
    <path id="Path_62" data-name="Path 62" d="M30.45,10a.27.27,0,1,1-.26-.27.27.27,0,0,1,.26.27Z" fill="#f7ac4b"/>
    <path id="Path_63" data-name="Path 63" d="M35.67,12a.9.9,0,1,1-.9-.9.89.89,0,0,1,.9.9Z" fill="#f7ac4b"/>
    <circle id="Ellipse_4" data-name="Ellipse 4" cx="0.22" cy="0.22" r="0.22" transform="translate(31.87 11.65)" fill="#f7ac4b"/>
    <circle id="Ellipse_5" data-name="Ellipse 5" cx="0.47" cy="0.47" r="0.47" transform="translate(36.92 10.29)" fill="#f7ac4b"/>
    <path id="Path_64" data-name="Path 64" d="M37.63,15.78a.61.61,0,1,1-.6-.61.6.6,0,0,1,.6.61Z" fill="#f7ac4b"/>
    <path id="Path_65" data-name="Path 65" d="M41.24,14.67a.59.59,0,1,1-.59-.59.59.59,0,0,1,.59.59Z" fill="#f7ac4b"/>
    <path id="Path_66" data-name="Path 66" d="M34.73,15.1a.43.43,0,1,1-.191-.426.43.43,0,0,1,.191.426Z" fill="#f7ac4b"/>
    <circle id="Ellipse_6" data-name="Ellipse 6" cx="0.45" cy="0.45" r="0.45" transform="translate(37.63 18.81)" fill="#f7ac4b"/>
    <path id="Path_67" data-name="Path 67" d="M37.42,21a.25.25,0,1,1-.25-.25A.25.25,0,0,1,37.42,21Z" fill="#f7ac4b"/>
    <path id="Path_68" data-name="Path 68" d="M12.56,41a.74.74,0,1,1-.73-.73.73.73,0,0,1,.73.73Z" fill="#f7ac4b"/>
    <path id="Path_69" data-name="Path 69" d="M16.46,43.59a.69.69,0,1,1-.69-.69A.69.69,0,0,1,16.46,43.59Z" fill="#f7ac4b"/>
    <path id="Path_70" data-name="Path 70" d="M14.52,39.24a.33.33,0,0,1-.33.33.327.327,0,1,1,.33-.33Z" fill="#f7ac4b"/>
    <path id="Path_71" data-name="Path 71" d="M44.5,17.73a.8.8,0,1,1-.8-.8A.8.8,0,0,1,44.5,17.73Z" fill="#f7ac4b"/>
    <path id="Path_72" data-name="Path 72" d="M22.08,47.87a.65.65,0,1,1-.64-.64.65.65,0,0,1,.64.64Z" fill="#8ec6f4"/>
    <path id="Path_73" data-name="Path 73" d="M19.52,46.91a.32.32,0,1,1-.315-.264.32.32,0,0,1,.315.264Z" fill="#8ec6f4"/>
    <circle id="Ellipse_7" data-name="Ellipse 7" cx="0.79" cy="0.79" r="0.79" transform="translate(46.83 22.56)" fill="#8ec6f4"/>
    <path id="Path_74" data-name="Path 74" d="M47.92,20.25a.54.54,0,1,1-.54-.54.54.54,0,0,1,.54.54Z" fill="#8ec6f4"/>
  </g>
</svg>
