<svg xmlns="http://www.w3.org/2000/svg" width="50" height="50.158" viewBox="0 0 50 50.158">
  <g id="jon" transform="translate(-7 -6.842)">
    <ellipse id="Ellipse_10" data-name="Ellipse 10" cx="14.4" cy="8.96" rx="14.4" ry="8.96" transform="translate(17.6 24.83)" fill="#041256"/>
    <path id="Path_1114" data-name="Path 1114" d="M32,37.33c-9.52,0-18.08,2.41-24,6.23V56H56V43.57C50.09,39.74,41.53,37.33,32,37.33Z" fill="#385272"/>
    <path id="Path_1115" data-name="Path 1115" d="M13.84,56H50.16a28.86,28.86,0,0,0,4.47-13.26,45.14,45.14,0,0,0-20-5.34c-.88,0-1.75-.07-2.65-.07h0c-.89,0-1.76,0-2.64.07a45.09,45.09,0,0,0-20,5.33A28.75,28.75,0,0,0,13.84,56Z" fill="#2c4460"/>
    <path id="Path_1116" data-name="Path 1116" d="M11.26,41.74A26.06,26.06,0,0,0,16.53,56H47.47a26,26,0,0,0,5.27-14.26A47.78,47.78,0,0,0,32,37.33a47.75,47.75,0,0,0-20.74,4.41Z" fill="#456a82"/>
    <path id="Path_1117" data-name="Path 1117" d="M33.62,37.34h-.4a50.1,50.1,0,0,0-20.74,4.18,24,24,0,0,0,5.27,13.54h.81a24,24,0,0,1-5.27-13.54,50,50,0,0,1,20.33-4.18Z" fill="#6d96ad"/>
    <path id="Path_1118" data-name="Path 1118" d="M36.12,37.34h-.41A50.13,50.13,0,0,0,15,41.51a24.07,24.07,0,0,0,5.27,13.54h.81a24,24,0,0,1-5.27-13.54,50,50,0,0,1,20.31-4.17Z" fill="#6d96ad"/>
    <path id="Path_1119" data-name="Path 1119" d="M38.61,37.34H38.2a50.08,50.08,0,0,0-20.73,4.18,24,24,0,0,0,5.27,13.54h.8a24.07,24.07,0,0,1-5.27-13.54,50,50,0,0,1,20.34-4.18Z" fill="#6d96ad"/>
    <path id="Path_1120" data-name="Path 1120" d="M41.1,37.34h-.4A50.1,50.1,0,0,0,20,41.51a24,24,0,0,0,5.27,13.54H26a24,24,0,0,1-5.27-13.54A49.92,49.92,0,0,1,41.1,37.34Z" fill="#6d96ad"/>
    <path id="Path_1121" data-name="Path 1121" d="M43.59,37.34h-.4a50.1,50.1,0,0,0-20.74,4.18,24,24,0,0,0,5.27,13.54h.81a24,24,0,0,1-5.27-13.54,49.92,49.92,0,0,1,20.33-4.18Z" fill="#6d96ad"/>
    <path id="Path_1122" data-name="Path 1122" d="M30.38,37.34h.4a50.1,50.1,0,0,1,20.74,4.18,24,24,0,0,1-5.27,13.54h-.81a24,24,0,0,0,5.27-13.54,50,50,0,0,0-20.33-4.18Z" fill="#6d96ad"/>
    <path id="Path_1123" data-name="Path 1123" d="M27.88,37.34h.41A50.13,50.13,0,0,1,49,41.51a24.07,24.07,0,0,1-5.27,13.54H43a24,24,0,0,0,5.27-13.54,50,50,0,0,0-20.39-4.17Z" fill="#6d96ad"/>
    <path id="Path_1124" data-name="Path 1124" d="M25.39,37.34h.41a50.08,50.08,0,0,1,20.73,4.18,24,24,0,0,1-5.27,13.54h-.8a24.07,24.07,0,0,0,5.27-13.54,50,50,0,0,0-20.34-4.18Z" fill="#6d96ad"/>
    <path id="Path_1125" data-name="Path 1125" d="M22.9,37.34h.4A50.1,50.1,0,0,1,44,41.51a24,24,0,0,1-5.27,13.54H38a24,24,0,0,0,5.27-13.54A49.92,49.92,0,0,0,22.9,37.34Z" fill="#6d96ad"/>
    <path id="Path_1126" data-name="Path 1126" d="M20.41,37.34h.4a50.1,50.1,0,0,1,20.74,4.18,24,24,0,0,1-5.27,13.54h-.81a24,24,0,0,0,5.27-13.54,49.92,49.92,0,0,0-20.33-4.18Z" fill="#6d96ad"/>
    <path id="Path_1127" data-name="Path 1127" d="M32,37.33c-9.52,0-18.08,2.41-24,6.23V47.4c5.91-3.82,14.47-6.23,24-6.23s18.1,2.41,24,6.24V43.57C50.09,39.74,41.53,37.33,32,37.33Z" fill="#456a82"/>
    <path id="Path_1128" data-name="Path 1128" d="M32,37.33c-9.52,0-18.08,2.41-24,6.23v2.38c5.91-3.82,14.47-6.23,24-6.23S50.09,42.12,56,46V43.57C50.09,39.74,41.53,37.33,32,37.33Z" fill="#6d96ad"/>
    <path id="Path_1129" data-name="Path 1129" d="M32.2,41.17c9.45,0,17.93,2.44,23.8,6.24V43.57c-5.87-3.8-14.35-6.2-23.8-6.23Z" fill="#5df9e6"/>
    <path id="Path_1130" data-name="Path 1130" d="M57,57H7V43l.46-.3c6.28-4.06,15.22-6.39,24.54-6.39s18.26,2.34,24.54,6.4L57,43ZM9,55H55V44.12c-5.94-3.68-14.29-5.79-23-5.79S14.94,40.44,9,44.11Z" fill="#041256"/>
    <path id="Path_1131" data-name="Path 1131" d="M47.65,41.09l-2.24-6.28.93-.16L44.3,31.81V30.13l-5.57.41L32.01,44.75,25.3,30.54l-5.57-.41v1.68l-2.05,2.84.93.16-2.23,6.28,2.79-.79-2.79,3.97h4l.46,5.26,3.09-.44-.43,2.48,1.17-.71,1.58,2.55,2.2-1.75,1.03,2.49,1.05-1.52,1.48,1.69,1.49-1.69,1.05,1.52,1.02-2.49,2.21,1.75,1.57-2.55,1.17.71-.43-2.48,3.1.44.45-5.26h4.01l-2.8-3.97Z" fill="#577593"/>
    <path id="Path_1132" data-name="Path 1132" d="M38.73,30.54,32,44.75l-.18,3.76a5.31,5.31,0,0,0,3.78-1.57l3.71-3.7A5.39,5.39,0,0,0,40.85,40l.26-2.41A15.11,15.11,0,0,1,42.29,33a13.1,13.1,0,0,0,.9-2.78Z" fill="#385272"/>
    <path id="Path_1133" data-name="Path 1133" d="M19.19,41.09l2.23-6.28-.93-.16,2.05-2.84V30.34l-2.81-.21v1.68l-2.05,2.84.93.16-2.23,6.28,2.79-.79-2.79,3.97h2.81l2.79-3.97Z" fill="#8ca3b5"/>
    <path id="Path_1134" data-name="Path 1134" d="M33.42,52.72l-.08-.09-.58.84Z" fill="#8ca3b5"/>
    <path id="Path_1135" data-name="Path 1135" d="M42.9,49.09l.08.41.21.03.03-.4Z" fill="#8ca3b5"/>
    <path id="Path_1136" data-name="Path 1136" d="M34.82,44.75l6.72-14.21,2.76-.2v-.21l-5.57.41L33.42,41.77Z" fill="#8ca3b5"/>
    <path id="Path_1137" data-name="Path 1137" d="M27.48,50.86l-1.16.71.42-2.48-2.88.41-.36,2.07,1.17-.71,1.58,2.55,1.88-1.5Z" fill="#8ca3b5"/>
    <path id="Path_1138" data-name="Path 1138" d="M23.19,44.27H20.38l.46,5.26,2.77-.4Z" fill="#8ca3b5"/>
    <path id="Path_1139" data-name="Path 1139" d="M38.38,51.66l-.69,1.68.09.07.92-1.5Z" fill="#8ca3b5"/>
    <path id="Path_1140" data-name="Path 1140" d="M34.08,53.47l.47.68.04-.1Z" fill="#8ca3b5"/>
    <path id="Path_1141" data-name="Path 1141" d="M44.56,41.09l-2.23-6.28.93-.16-2.04-2.84V30.34l2.81-.21v1.68l2.04,2.84-.93.16,2.24,6.28-2.8-.79,2.8,3.97H44.56L41.77,40.3Z" fill="#5df9e6"/>
    <path id="Path_1142" data-name="Path 1142" d="M30.34,52.72l.08-.09.58.84Z" fill="#5df9e6"/>
    <path id="Path_1143" data-name="Path 1143" d="M20.85,49.09l-.07.41-.21.03-.04-.4Z" fill="#5df9e6"/>
    <path id="Path_1144" data-name="Path 1144" d="M28.93,44.75,22.21,30.54l-2.75-.2v-.21l5.56.41,5.32,11.23Z" fill="#5df9e6"/>
    <path id="Path_1145" data-name="Path 1145" d="M36.27,50.86l1.17.71-.43-2.48,2.89.41.35,2.07-1.17-.71-1.57,2.55-1.89-1.5Z" fill="#5df9e6"/>
    <path id="Path_1146" data-name="Path 1146" d="M40.56,44.27h2.82l-.46,5.26-2.78-.4Z" fill="#5df9e6"/>
    <path id="Path_1147" data-name="Path 1147" d="M25.37,51.66l.7,1.68-.09.07-.93-1.5Z" fill="#5df9e6"/>
    <path id="Path_1148" data-name="Path 1148" d="M29.68,53.47l-.47.68-.04-.1Z" fill="#5df9e6"/>
    <ellipse id="Ellipse_11" data-name="Ellipse 11" cx="3.13" cy="5.6" rx="3.13" ry="5.6" transform="translate(28.88 37.8)" fill="#f4d2ba"/>
    <path id="Path_1149" data-name="Path 1149" d="M32,50.19l-.54-.35a7.58,7.58,0,0,1,0-12.88l.54-.35.54.35a7.57,7.57,0,0,1,0,12.88ZM32,39a5.56,5.56,0,0,0,0,8.74A5.55,5.55,0,0,0,32,39Z" fill="#041256"/>
    <path id="Path_1150" data-name="Path 1150" d="M34.77,56.22l-1.37-2L32,55.83l-1.39-1.58-1.36,2L28,53.27l-2,1.62-1.65-2.66-2.19,1.33.56-3.29-2.78.4-.47-5.4h-5L16.73,42l-1.94.56,2.48-7-1.33-.24,2.79-3.86V29.05l7.16.53L32,39.87l6.13-10.29,7.16-.53v2.44l2.79,3.86-1.34.24,2.49,7-2-.55,2.28,3.24h-5l-.47,5.4-2.78-.4.57,3.29-2.2-1.33L38,54.89l-2-1.62ZM30.44,51,32,52.8,33.59,51l.73,1,.84-2,2.36,1.88L39,49.49l.14.09-.29-1.67,3.41.48.45-5.12h3l-3.3-4.7,3.63,1-2-5.57.53-.09-1.3-1.8V31.2l-4,.3L32,43.78,24.7,31.5l-4-.3v.94l-1.3,1.8L20,34l-2,5.6,3.64-1-3.3,4.7h3l.44,5.12,3.41-.48-.29,1.67.14-.09,1.51,2.44,2.36-1.88.83,2h0Z" fill="#041256"/>
    <path id="Path_1151" data-name="Path 1151" d="M45.09,20.9a13.09,13.09,0,1,0-25,5.33,15.52,15.52,0,0,1,1.22,4.7l.25,2.41a5.32,5.32,0,0,0,1.54,3.21l3.71,3.71a5.34,5.34,0,0,0,3.77,1.56H33.5a5.34,5.34,0,0,0,3.77-1.56l3.71-3.71a5.32,5.32,0,0,0,1.54-3.21l.25-2.41a14.84,14.84,0,0,1,1.19-4.63,13,13,0,0,0,1.13-5.4Z" fill="#f4d2ba"/>
    <path id="Path_1152" data-name="Path 1152" d="M33.93,37.5c0,.16-.86,1.84-1.93,1.84s-1.93-1.68-1.93-1.84.86-.3,1.93-.3S33.93,37.33,33.93,37.5Z" fill="#eac2a7"/>
    <path id="Path_1153" data-name="Path 1153" d="M22.47,13.9,21.87,25l-.68,1.12,1.28,2.17,1-3.53a2.08,2.08,0,0,1,2.4-1.48l2.74.53a2,2,0,0,0,1.59-.34l.89-.62A2.07,2.07,0,0,0,32,21.1V16.56Z" fill="#ffeadc"/>
    <path id="Path_1154" data-name="Path 1154" d="M34.41,32.25,34,32l-2,.71L30,32l-.42.25c-.64.38-.51,1.15.23,1.39l2.18.7,2.18-.7C34.92,33.4,35.05,32.63,34.41,32.25Z" fill="#eac2a7"/>
    <path id="Path_1155" data-name="Path 1155" d="M28.6,26.08l2,1.45a2,2,0,0,1,.82,1.61v3.78L30,32l-.22.08V31.4l.75-.28-.64-1.45a1,1,0,0,1,0-.69l.09-.31a1,1,0,0,0-.15-.86Z" fill="#ffeadc"/>
    <path id="Path_1156" data-name="Path 1156" d="M35.4,26.08l-2,1.45a2,2,0,0,0-.82,1.61v3.78L34,32l.22.08V31.4l-.75-.28.64-1.45a1,1,0,0,0,0-.69L34,28.67a1,1,0,0,1,.15-.86Z" fill="#f9dfcd"/>
    <path id="Path_1157" data-name="Path 1157" d="M35.47,41.17H32.55a5.34,5.34,0,0,1-3.77-1.56L25.07,35.9a5.36,5.36,0,0,1-1.53-3.21l-.26-2.41a15.52,15.52,0,0,0-1.22-4.7A13.06,13.06,0,0,1,29,8.16,13.16,13.16,0,0,0,19,19.27a13,13,0,0,0,1,7,15.52,15.52,0,0,1,1.22,4.7l.25,2.41a5.32,5.32,0,0,0,1.54,3.21l3.71,3.71a5.34,5.34,0,0,0,3.77,1.56h2.92a5.32,5.32,0,0,0,2.61-.71C35.87,41.13,35.67,41.17,35.47,41.17Z" fill="#ffeadc"/>
    <path id="Path_1158" data-name="Path 1158" d="M28.53,41.17h2.92a5.34,5.34,0,0,0,3.77-1.56l3.71-3.71a5.36,5.36,0,0,0,1.53-3.21l.26-2.41a15.52,15.52,0,0,1,1.22-4.7,13,13,0,0,0,1-7A13.18,13.18,0,0,0,35,8.16,13.16,13.16,0,0,1,45,19.27a13,13,0,0,1-1,7,15.52,15.52,0,0,0-1.22,4.7l-.25,2.41a5.32,5.32,0,0,1-1.54,3.21L37.28,40.3a5.34,5.34,0,0,1-3.77,1.56H30.54a5.32,5.32,0,0,1-2.61-.71C28.13,41.13,28.33,41.17,28.53,41.17Z" fill="#5df9e6"/>
    <path id="Path_1159" data-name="Path 1159" d="M32,33.42l-.36-.06a1.22,1.22,0,0,1-.52-.19,7.5,7.5,0,0,1-.56-.53l-.51-.5c-.1-.14-.32.09-.52.22l.21-.3a.36.36,0,0,1,.43-.14l.67.31c.21.09.48.23.63.28s.07,0,.17,0l.36-.06Z" fill="#041256"/>
    <path id="Path_1160" data-name="Path 1160" d="M34.47,32.36c-.2-.13-.42-.36-.52-.22l-.51.5a7.5,7.5,0,0,1-.56.53,1.22,1.22,0,0,1-.52.19l-.36.06v-1l.36.06h.17a6.047,6.047,0,0,0,.63-.28l.67-.31a.36.36,0,0,1,.43.14Z" fill="#041256"/>
    <path id="Path_1161" data-name="Path 1161" d="M28,35.2l1.21.09h-.07l1.15-.37H32.1a.49.49,0,0,1,.49.51.52.52,0,0,1-.51.5.58.58,0,0,1-.14,0l-1.63-.48h.1l-1.2.16h-.07Z" fill="#041256"/>
    <path id="Path_1162" data-name="Path 1162" d="M36,35.2l-1.14.41h-.07l-1.2-.16h.1l-1.63.48a.5.5,0,1,1-.29-.96.3.3,0,0,1,.13,0h1.81l1.15.37h-.07Z" fill="#041256"/>
    <path id="Path_1163" data-name="Path 1163" d="M30.15,37.33a7,7,0,0,1,3.7,0,7,7,0,0,1-3.7,0Z" fill="#041256"/>
    <path id="Path_1164" data-name="Path 1164" d="M24.48,25.33l.26.92a2.27,2.27,0,0,0,.71,1.11l.9.74a1.83,1.83,0,0,0,1,.41l1,.06a1.18,1.18,0,0,0,1.26-1.15v-.59L28.43,26Z" fill="#eac2a7"/>
    <path id="Path_1165" data-name="Path 1165" d="M24.48,25.33a7.3,7.3,0,0,1,2.79-.06l.67.14a2.46,2.46,0,0,1,.74.27,2.27,2.27,0,0,1,.59.52,4,4,0,0,1,.37.63,4.55,4.55,0,0,1-.68-.25,3.18,3.18,0,0,0-.58-.17,3.41,3.41,0,0,0-.59-.07l-.68-.08a6.93,6.93,0,0,1-2.63-.93Z" fill="#041256"/>
    <path id="Path_1166" data-name="Path 1166" d="M28.15,26.58a.75.75,0,1,1-.75-.75.75.75,0,0,1,.75.75Z" fill="#041256"/>
    <path id="Path_1167" data-name="Path 1167" d="M39.52,25.33l-.26.92a2.27,2.27,0,0,1-.71,1.11l-.9.74a1.83,1.83,0,0,1-1,.41l-1,.06a1.18,1.18,0,0,1-1.26-1.15v-.59L35.57,26Z" fill="#eac2a7"/>
    <path id="Path_1168" data-name="Path 1168" d="M39.52,25.33a6.93,6.93,0,0,1-2.63.93l-.68.08a3.41,3.41,0,0,0-.59.07,3.18,3.18,0,0,0-.58.17,4.55,4.55,0,0,1-.68.25,4,4,0,0,1,.37-.63,2.27,2.27,0,0,1,.59-.52,2.46,2.46,0,0,1,.74-.27l.67-.14a7.3,7.3,0,0,1,2.79.06Z" fill="#041256"/>
    <path id="Path_1169" data-name="Path 1169" d="M35.85,26.58a.75.75,0,1,0,.75-.75.75.75,0,0,0-.75.75Z" fill="#041256"/>
    <path id="Path_1170" data-name="Path 1170" d="M27.17,36.22A11,11,0,0,1,28,35.14a3.53,3.53,0,0,1,1.17-.85l1.28-.48,1.23-.45a1.017,1.017,0,1,1,.7,1.91,1.26,1.26,0,0,1-.38.06l-2.58-.08a2.78,2.78,0,0,0-1.12.29,12.06,12.06,0,0,0-1.13.68Z" fill="#041256"/>
    <path id="Path_1171" data-name="Path 1171" d="M36.83,36.22a12.06,12.06,0,0,0-1.09-.68,2.78,2.78,0,0,0-1.12-.29L32,35.33a1.025,1.025,0,1,1,.33-1.98l1.23.45,1.28.48a3.53,3.53,0,0,1,1.17.85A11,11,0,0,1,36.83,36.22Z" fill="#041256"/>
    <path id="Path_1172" data-name="Path 1172" d="M24.37,32.17l-1.27-.84c-.41-.28-.85-.54-1.28-.89a8.4,8.4,0,0,1-1.16-1.15l-1-1.22,1.76-1,.49,1.4a6.74,6.74,0,0,0,.63,1.26,12.82,12.82,0,0,0,.9,1.27Z" fill="#041256"/>
    <path id="Path_1173" data-name="Path 1173" d="M39.63,32.17,40.56,31a12.82,12.82,0,0,0,.87-1.19,6.74,6.74,0,0,0,.63-1.26l.49-1.4,1.76,1-1,1.22a8.4,8.4,0,0,1-1.16,1.15c-.43.35-.87.61-1.28.89Z" fill="#041256"/>
    <path id="Path_1174" data-name="Path 1174" d="M33.46,42.82H30.54A6.29,6.29,0,0,1,26.06,41l-3.71-3.7a6.36,6.36,0,0,1-1.82-3.81L20.27,31a14.49,14.49,0,0,0-1.13-4.4,14.09,14.09,0,1,1,27-5.74,13.84,13.84,0,0,1-1.26,5.81A13.93,13.93,0,0,0,43.73,31l-.26,2.41a6.36,6.36,0,0,1-1.82,3.81L37.94,41A6.29,6.29,0,0,1,33.46,42.82ZM32,8.81A12.073,12.073,0,0,0,21,25.82a16.39,16.39,0,0,1,1.3,5l.26,2.41a4.36,4.36,0,0,0,1.24,2.61l3.71,3.71a4.31,4.31,0,0,0,3.07,1.27H33.5a4.31,4.31,0,0,0,3.07-1.27l3.71-3.71a4.36,4.36,0,0,0,1.24-2.61l.26-2.4A15.81,15.81,0,0,1,43,25.88a11.87,11.87,0,0,0,1.08-5,12.129,12.129,0,0,0-4-9A12,12,0,0,0,32,8.81Z" fill="#041256"/>
    <path id="Path_1175" data-name="Path 1175" d="M35.53,40.37l-.55.18a3,3,0,0,1-2.53-.28h0a.86.86,0,0,0-.9,0h0a3,3,0,0,1-2.53.28l-.55-.18L22.14,37l3.25,4.07a12.74,12.74,0,0,0,6.29,4.27h0a1.16,1.16,0,0,0,.64,0h0a12.74,12.74,0,0,0,6.29-4.27L41.86,37Z" fill="#041256"/>
    <path id="Path_1176" data-name="Path 1176" d="M43,11.82a12.91,12.91,0,0,0-6.78-4.4h0a16,16,0,0,0-8.52,0h0a12.91,12.91,0,0,0-6.7,4.4,14.55,14.55,0,0,0-3.13,9V24a2,2,0,0,0,.59,1.41L21.92,29l-.34-2.81A1.77,1.77,0,0,1,21.87,25l.78-1.16A2,2,0,0,0,23,22.45l-.42-3.52a.79.79,0,0,1,.65-.87l4.2-.69a4.58,4.58,0,0,1,3.9,1.18,1,1,0,0,0,1.38,0,4.58,4.58,0,0,1,3.9-1.18l4.2.69a.79.79,0,0,1,.65.87L41,22.45a2,2,0,0,0,.33,1.35l.8,1.2a1.77,1.77,0,0,1,.29,1.18L42.08,29l3.5-3.55A2,2,0,0,0,46.17,24V20.84A14.55,14.55,0,0,0,43,11.82Z" fill="#041256"/>
    <path id="Path_1177" data-name="Path 1177" d="M43,11.82a12.91,12.91,0,0,0-6.78-4.4h0a16,16,0,0,0-8.52,0h0a12.91,12.91,0,0,0-6.7,4.4,14.55,14.55,0,0,0-3.13,9V24a2,2,0,0,0,.59,1.41L21.92,29l-.34-2.81A1.77,1.77,0,0,1,21.87,25l.78-1.16A2,2,0,0,0,23,22.45l-.42-3.52a.79.79,0,0,1,.65-.87l4.2-.69a4.58,4.58,0,0,1,3.9,1.18,1,1,0,0,0,1.38,0,4.58,4.58,0,0,1,3.9-1.18l4.2.69a.79.79,0,0,1,.65.87L41,22.45a2,2,0,0,0,.33,1.35l.8,1.2a1.77,1.77,0,0,1,.29,1.18L42.08,29l3.5-3.55A2,2,0,0,0,46.17,24V20.84A14.55,14.55,0,0,0,43,11.82Z" fill="#041256"/>
    <path id="Path_1178" data-name="Path 1178" d="M26.46,12.47a15.19,15.19,0,0,1-.4-2.28,3.05,3.05,0,0,0-.44,2.49,3.09,3.09,0,0,0,1.6,2,14.67,14.67,0,0,1-.76-2.21Z" fill="#283a7c"/>
    <path id="Path_1179" data-name="Path 1179" d="M30.17,12.75a25.15,25.15,0,0,1-.69-3.91,5.18,5.18,0,0,0-.8,4.29,5.24,5.24,0,0,0,2.78,3.37,24.62,24.62,0,0,1-1.29-3.75Z" fill="#283a7c"/>
    <path id="Path_1180" data-name="Path 1180" d="M24.38,13.57a13,13,0,0,1-.82-1.69,2.49,2.49,0,0,0,1.89,3.24,11.42,11.42,0,0,1-1.07-1.55Z" fill="#283a7c"/>
    <path id="Path_1181" data-name="Path 1181" d="M23,15a10.28,10.28,0,0,1-1-1.1A2.07,2.07,0,0,0,24.26,16,9.63,9.63,0,0,1,23,15Z" fill="#283a7c"/>
    <path id="Path_1182" data-name="Path 1182" d="M37.54,12.47a15.19,15.19,0,0,0,.4-2.28,3.05,3.05,0,0,1,.44,2.49,3.09,3.09,0,0,1-1.6,2,14.671,14.671,0,0,0,.76-2.21Z" fill="#5df9e6"/>
    <path id="Path_1183" data-name="Path 1183" d="M39.62,13.57a13,13,0,0,0,.82-1.69,2.49,2.49,0,0,1-1.89,3.24,11.42,11.42,0,0,0,1.07-1.55Z" fill="#5df9e6"/>
    <path id="Path_1184" data-name="Path 1184" d="M41,15a10.28,10.28,0,0,0,1.07-1.14A2.07,2.07,0,0,1,39.74,16,9.63,9.63,0,0,0,41,15Z" fill="#5df9e6"/>
    <path id="Path_1185" data-name="Path 1185" d="M20.49,27.33A10.06,10.06,0,0,0,18.31,25c-.75-.32-2,2.63,0,4.26s1.48,2.54,2.84,2.75Z" fill="#f4d2ba"/>
    <path id="Path_1186" data-name="Path 1186" d="M21.15,33H21a2.45,2.45,0,0,1-1.9-1.37A5.41,5.41,0,0,0,17.68,30a4,4,0,0,1-.94-5.1,1.56,1.56,0,0,1,2-.86,9.23,9.23,0,0,1,2.6,2.69.9.9,0,0,1,.18.43l.66,4.67A1.052,1.052,0,0,1,21.15,33Zm-2.83-6.74a2.32,2.32,0,0,0-.11.79,1.87,1.87,0,0,0,.72,1.42,7.59,7.59,0,0,1,.81.73l-.21-1.48a14.88,14.88,0,0,0-1.21-1.46Z" fill="#041256"/>
    <path id="Path_1187" data-name="Path 1187" d="M43.51,27.33A10.06,10.06,0,0,1,45.69,25c.75-.32,2,2.63,0,4.26S44.21,31.79,42.85,32Z" fill="#f4d2ba"/>
    <path id="Path_1188" data-name="Path 1188" d="M42.85,33a1.006,1.006,0,0,1-.99-1.14l.66-4.67a.9.9,0,0,1,.18-.43,9.23,9.23,0,0,1,2.6-2.69,1.56,1.56,0,0,1,2,.86,4,4,0,0,1-.94,5.1,5.41,5.41,0,0,0-1.41,1.59A2.45,2.45,0,0,1,43,33Zm1.62-5.28-.21,1.48a7.59,7.59,0,0,1,.81-.73,1.87,1.87,0,0,0,.72-1.42,2.32,2.32,0,0,0-.11-.79,14.88,14.88,0,0,0-1.21,1.46Z" fill="#041256"/>
  </g>
</svg>
