<svg xmlns="http://www.w3.org/2000/svg" width="50.001" height="50.47" viewBox="0 0 50.001 50.47">
  <g id="king" transform="translate(-7 -6.53)">
    <path id="Path_191" data-name="Path 191" d="M42.16,40.38l-1.11-2.44-2.43,2.44L32,38.68l-6.62,1.7L23,37.94l-1.11,2.44a2.34,2.34,0,0,1-1.55,1.31L8,44.84V56H56V44.84L43.71,41.69a2.34,2.34,0,0,1-1.55-1.31Z" fill="#456a82"/>
    <path id="Path_192" data-name="Path 192" d="M43.71,41.69a2.34,2.34,0,0,1-1.55-1.31l-1.11-2.44-2.43,2.44L32,38.68l-6.62,1.7L23,37.94l-1.11,2.44a2.34,2.34,0,0,1-1.55,1.31L8,44.84V46.9l12.29-3.15a2.35,2.35,0,0,0,1.55-1.3L23,40l2.43,2.43L32,40.75l6.62,1.69L41.05,40l1.11,2.44a2.35,2.35,0,0,0,1.55,1.3L56,46.9V44.84Z" fill="#59839b"/>
    <path id="Path_193" data-name="Path 193" d="M52.74,52.82l-1.25-.32v.88l1.25.32Z" fill="#385272"/>
    <path id="Path_194" data-name="Path 194" d="M50.49,52.24l-1.25-.32v.88l1.25.32Z" fill="#385272"/>
    <path id="Path_195" data-name="Path 195" d="M14.76,51.92l-1.25.32v.88l1.25-.32Z" fill="#385272"/>
    <path id="Path_196" data-name="Path 196" d="M11.26,53.7l1.25-.32V52.5l-1.25.32Z" fill="#385272"/>
    <path id="Path_197" data-name="Path 197" d="M48.24,51.66l-1.25-.32v.88l1.25.32Z" fill="#385272"/>
    <path id="Path_198" data-name="Path 198" d="M39.24,49.35l-1.25-.32v.88l1.25.32Z" fill="#385272"/>
    <path id="Path_199" data-name="Path 199" d="M45.99,51.09l-1.25-.32v.87l1.25.32Z" fill="#385272"/>
    <path id="Path_200" data-name="Path 200" d="M41.49,49.93l-1.25-.32v.88l1.25.32Z" fill="#385272"/>
    <path id="Path_201" data-name="Path 201" d="M43.74,50.51l-1.25-.32v.88l1.25.32Z" fill="#385272"/>
    <path id="Path_202" data-name="Path 202" d="M35.74,49.33l1.25.33v-.88l-1.25-.32Z" fill="#385272"/>
    <path id="Path_203" data-name="Path 203" d="M17.01,51.34l-1.25.32v.88l1.25-.32Z" fill="#385272"/>
    <path id="Path_204" data-name="Path 204" d="M10.26,53.08,8,53.66v.87l2.26-.58Z" fill="#385272"/>
    <path id="Path_205" data-name="Path 205" d="M34.74,48.2,32,47.5l-2.74.7v.88L32,48.37l2.74.71Z" fill="#385272"/>
    <path id="Path_206" data-name="Path 206" d="M53.74,53.08v.87l2.26.58v-.87Z" fill="#385272"/>
    <path id="Path_207" data-name="Path 207" d="M28.26,48.46l-1.25.32v.88l1.25-.33Z" fill="#385272"/>
    <path id="Path_208" data-name="Path 208" d="M26.01,49.03l-1.25.32v.88l1.25-.32Z" fill="#385272"/>
    <path id="Path_209" data-name="Path 209" d="M19.26,50.77l-1.25.32v.87l1.25-.32Z" fill="#385272"/>
    <path id="Path_210" data-name="Path 210" d="M21.51,50.19l-1.25.32v.88l1.25-.32Z" fill="#385272"/>
    <path id="Path_211" data-name="Path 211" d="M23.76,49.61l-1.25.32v.88l1.25-.32Z" fill="#385272"/>
    <path id="Path_212" data-name="Path 212" d="M52.74,50.88l-1.25-.32v.88l1.25.32Z" fill="#385272"/>
    <path id="Path_213" data-name="Path 213" d="M50.49,50.3l-1.25-.32v.88l1.25.32Z" fill="#385272"/>
    <path id="Path_214" data-name="Path 214" d="M14.76,49.98l-1.25.32v.88l1.25-.32Z" fill="#385272"/>
    <path id="Path_215" data-name="Path 215" d="M11.26,51.76l1.25-.32v-.88l-1.25.32Z" fill="#385272"/>
    <path id="Path_216" data-name="Path 216" d="M48.24,49.73l-1.25-.32v.87l1.25.32Z" fill="#385272"/>
    <path id="Path_217" data-name="Path 217" d="M39.24,47.42l-1.25-.32v.87l1.25.33Z" fill="#385272"/>
    <path id="Path_218" data-name="Path 218" d="M45.99,49.15l-1.25-.32v.88l1.25.32Z" fill="#385272"/>
    <path id="Path_219" data-name="Path 219" d="M41.49,47.99l-1.25-.32v.88l1.25.32Z" fill="#385272"/>
    <path id="Path_220" data-name="Path 220" d="M43.74,48.57l-1.25-.32v.88l1.25.32Z" fill="#385272"/>
    <path id="Path_221" data-name="Path 221" d="M35.74,47.4l1.25.32v-.88l-1.25-.32Z" fill="#385272"/>
    <path id="Path_222" data-name="Path 222" d="M17.01,49.41l-1.25.32v.87l1.25-.32Z" fill="#385272"/>
    <path id="Path_223" data-name="Path 223" d="M10.26,51.14,8,51.72v.87l2.26-.57Z" fill="#385272"/>
    <path id="Path_224" data-name="Path 224" d="M34.74,46.26,32,45.56l-2.74.7v.88l2.74-.7,2.74.7Z" fill="#385272"/>
    <path id="Path_225" data-name="Path 225" d="M53.74,51.14v.88l2.26.57v-.87Z" fill="#385272"/>
    <path id="Path_226" data-name="Path 226" d="M28.26,46.52l-1.25.32v.88l1.25-.32Z" fill="#385272"/>
    <path id="Path_227" data-name="Path 227" d="M26.01,47.1l-1.25.32v.88l1.25-.33Z" fill="#385272"/>
    <path id="Path_228" data-name="Path 228" d="M19.26,48.83l-1.25.32v.88l1.25-.32Z" fill="#385272"/>
    <path id="Path_229" data-name="Path 229" d="M21.51,48.25l-1.25.32v.88l1.25-.32Z" fill="#385272"/>
    <path id="Path_230" data-name="Path 230" d="M23.76,47.67l-1.25.32v.88l1.25-.32Z" fill="#385272"/>
    <path id="Path_231" data-name="Path 231" d="M52.74,48.94l-1.25-.32v.88l1.25.32Z" fill="#385272"/>
    <path id="Path_232" data-name="Path 232" d="M50.49,48.37l-1.25-.32v.87l1.25.32Z" fill="#385272"/>
    <path id="Path_233" data-name="Path 233" d="M14.76,48.05l-1.25.32v.87l1.25-.32Z" fill="#385272"/>
    <path id="Path_234" data-name="Path 234" d="M11.26,49.82l1.25-.32v-.88l-1.25.32Z" fill="#385272"/>
    <path id="Path_235" data-name="Path 235" d="M48.24,47.79l-1.25-.32v.88l1.25.32Z" fill="#385272"/>
    <path id="Path_236" data-name="Path 236" d="M39.24,45.48l-1.25-.32v.88l1.25.32Z" fill="#385272"/>
    <path id="Path_237" data-name="Path 237" d="M45.99,47.21l-1.25-.32v.88l1.25.32Z" fill="#385272"/>
    <path id="Path_238" data-name="Path 238" d="M41.49,46.06l-1.25-.32v.87l1.25.33Z" fill="#385272"/>
    <path id="Path_239" data-name="Path 239" d="M43.74,46.63l-1.25-.32v.88l1.25.32Z" fill="#385272"/>
    <path id="Path_240" data-name="Path 240" d="M35.74,45.46l1.25.32V44.9l-1.25-.32Z" fill="#385272"/>
    <path id="Path_241" data-name="Path 241" d="M17.01,47.47l-1.25.32v.88l1.25-.32Z" fill="#385272"/>
    <path id="Path_242" data-name="Path 242" d="M10.26,49.2,8,49.78v.88l2.26-.58Z" fill="#385272"/>
    <path id="Path_243" data-name="Path 243" d="M34.74,44.33,32,43.62l-2.74.71v.87L32,44.5l2.74.7Z" fill="#385272"/>
    <path id="Path_244" data-name="Path 244" d="M53.74,49.2v.88l2.26.58v-.88Z" fill="#385272"/>
    <path id="Path_245" data-name="Path 245" d="M28.26,44.58l-1.25.32v.88l1.25-.32Z" fill="#385272"/>
    <path id="Path_246" data-name="Path 246" d="M26.01,45.16l-1.25.32v.88l1.25-.32Z" fill="#385272"/>
    <path id="Path_247" data-name="Path 247" d="M19.26,46.89l-1.25.32v.88l1.25-.32Z" fill="#385272"/>
    <path id="Path_248" data-name="Path 248" d="M21.51,46.31l-1.25.32v.88l1.25-.32Z" fill="#385272"/>
    <path id="Path_249" data-name="Path 249" d="M23.76,45.74l-1.25.32v.88l1.25-.33Z" fill="#385272"/>
    <path id="Path_250" data-name="Path 250" d="M52.74,47.01l-1.25-.32v.87l1.25.32Z" fill="#385272"/>
    <path id="Path_251" data-name="Path 251" d="M50.49,46.43l-1.25-.32v.88l1.25.32Z" fill="#385272"/>
    <path id="Path_252" data-name="Path 252" d="M14.76,46.11l-1.25.32v.88l1.25-.32Z" fill="#385272"/>
    <path id="Path_253" data-name="Path 253" d="M11.26,47.88l1.25-.32v-.87l-1.25.32Z" fill="#385272"/>
    <path id="Path_254" data-name="Path 254" d="M48.24,45.85l-1.25-.32v.88l1.25.32Z" fill="#385272"/>
    <path id="Path_255" data-name="Path 255" d="M39.24,43.54l-1.25-.32v.88l1.25.32Z" fill="#385272"/>
    <path id="Path_256" data-name="Path 256" d="M45.99,45.27l-1.25-.32v.88l1.25.32Z" fill="#385272"/>
    <path id="Path_257" data-name="Path 257" d="M41.49,44.12l-1.25-.32v.88l1.25.32Z" fill="#385272"/>
    <path id="Path_258" data-name="Path 258" d="M43.74,44.7l-1.25-.32v.87l1.25.32Z" fill="#385272"/>
    <path id="Path_259" data-name="Path 259" d="M35.74,43.52l1.25.32v-.87l-1.25-.33Z" fill="#385272"/>
    <path id="Path_260" data-name="Path 260" d="M17.01,45.53l-1.25.32v.88l1.25-.32Z" fill="#385272"/>
    <path id="Path_261" data-name="Path 261" d="M10.26,47.26,8,47.84v.88l2.26-.58Z" fill="#385272"/>
    <path id="Path_262" data-name="Path 262" d="M34.74,42.39,32,41.69l-2.74.7v.88L32,42.56l2.74.71Z" fill="#385272"/>
    <path id="Path_263" data-name="Path 263" d="M53.74,47.26v.88l2.26.58v-.88Z" fill="#385272"/>
    <path id="Path_264" data-name="Path 264" d="M28.26,42.64l-1.25.33v.87l1.25-.32Z" fill="#385272"/>
    <path id="Path_265" data-name="Path 265" d="M26.01,43.22l-1.25.32v.88l1.25-.32Z" fill="#385272"/>
    <path id="Path_266" data-name="Path 266" d="M19.26,44.95l-1.25.32v.88l1.25-.32Z" fill="#385272"/>
    <path id="Path_267" data-name="Path 267" d="M21.51,44.38l-1.25.32v.87l1.25-.32Z" fill="#385272"/>
    <path id="Path_268" data-name="Path 268" d="M23.76,43.8l-1.25.32V45l1.25-.32Z" fill="#385272"/>
    <path id="Path_269" data-name="Path 269" d="M52.74,45.07l-1.25-.32v.88l1.25.32Z" fill="#385272"/>
    <path id="Path_270" data-name="Path 270" d="M50.49,44.49l-1.25-.32v.88l1.25.32Z" fill="#385272"/>
    <path id="Path_271" data-name="Path 271" d="M14.76,44.17l-1.25.32v.88l1.25-.32Z" fill="#385272"/>
    <path id="Path_272" data-name="Path 272" d="M11.26,45.95l1.25-.32v-.88l-1.25.32Z" fill="#385272"/>
    <path id="Path_273" data-name="Path 273" d="M48.24,43.91l-1.25-.32v.88l1.25.32Z" fill="#385272"/>
    <path id="Path_274" data-name="Path 274" d="M39.24,41.6l-1.25-.32v.88l1.25.32Z" fill="#385272"/>
    <path id="Path_275" data-name="Path 275" d="M45.99,43.34l-1.25-.32v.87l1.25.32Z" fill="#385272"/>
    <path id="Path_276" data-name="Path 276" d="M41.49,42.18l-1.25-.32v.88l1.25.32Z" fill="#385272"/>
    <path id="Path_277" data-name="Path 277" d="M43.74,42.76l-1.25-.32v.88l1.25.32Z" fill="#385272"/>
    <path id="Path_278" data-name="Path 278" d="M35.74,41.58l1.25.33v-.88l-1.25-.32Z" fill="#385272"/>
    <path id="Path_279" data-name="Path 279" d="M17.01,43.59l-1.25.32v.88l1.25-.32Z" fill="#385272"/>
    <path id="Path_280" data-name="Path 280" d="M10.26,45.33,8,45.91v.87l2.26-.58Z" fill="#385272"/>
    <path id="Path_281" data-name="Path 281" d="M34.74,40.45,32,39.75l-2.74.7v.88l2.74-.7,2.74.7Z" fill="#385272"/>
    <path id="Path_282" data-name="Path 282" d="M53.74,45.33v.87l2.26.58v-.87Z" fill="#385272"/>
    <path id="Path_283" data-name="Path 283" d="M28.26,40.71l-1.25.32v.88l1.25-.33Z" fill="#385272"/>
    <path id="Path_284" data-name="Path 284" d="M26.01,41.28l-1.25.32v.88l1.25-.32Z" fill="#385272"/>
    <path id="Path_285" data-name="Path 285" d="M19.26,43.02l-1.25.32v.87l1.25-.32Z" fill="#385272"/>
    <path id="Path_286" data-name="Path 286" d="M21.51,42.44l-1.25.32v.88l1.25-.32Z" fill="#385272"/>
    <path id="Path_287" data-name="Path 287" d="M23.76,41.86l-1.25.32v.88l1.25-.32Z" fill="#385272"/>
    <path id="Path_288" data-name="Path 288" d="M22.6,38.72a6.8,6.8,0,0,0,1.87,3.57l3.19,3.2a3.81,3.81,0,0,0,2.67,1.1h3.34a3.81,3.81,0,0,0,2.67-1.1l3.19-3.2a6.8,6.8,0,0,0,1.87-3.57l-.35-.78-2.43,2.44L32,38.68l-6.62,1.7L23,37.94Z" fill="#385272"/>
    <path id="Path_289" data-name="Path 289" d="M38.62,51.09,32,49.4l-6.61,1.69-4.01,1.03L8,55.55V56H56v-.45L42.62,52.12Z" fill="#385272"/>
    <path id="Path_290" data-name="Path 290" d="M56,57H8a1,1,0,0,1-1-1V44.84a1,1,0,0,1,.75-1L20,40.72a1.34,1.34,0,0,0,.89-.75L22,37.53a1,1,0,0,1,1.82.83L22.75,40.8a3.34,3.34,0,0,1-2.22,1.86L9,45.62V55H55V45.62l-11.53-3a3.34,3.34,0,0,1-2.22-1.86l-1.11-2.44A1.01,1.01,0,0,1,42,37.53L43.07,40a1.34,1.34,0,0,0,.89.75L56.25,43.9a1,1,0,0,1,.75,1V56A1,1,0,0,1,56,57Z" fill="#041256"/>
    <path id="Path_291" data-name="Path 291" d="M20.54,23.18l-3.13-3.82L18,27.15a2.83,2.83,0,0,0,.71,1.66l3.52,3.68Z" fill="#6394c1"/>
    <path id="Path_292" data-name="Path 292" d="M22.25,33.49a1,1,0,0,1-.72-.31L18,29.5a3.86,3.86,0,0,1-1-2.27l-.85-11,5.15,6.28a1,1,0,0,1-1.55,1.26l-1.11-1.35L19,27.07a1.84,1.84,0,0,0,.45,1.07L23,31.8a.987.987,0,0,1-.75,1.69Z" fill="#041256"/>
    <path id="Path_293" data-name="Path 293" d="M43.46,23.18l3.13-3.82L46,27.15a2.83,2.83,0,0,1-.71,1.66l-3.52,3.68Z" fill="#6394c1"/>
    <path id="Path_294" data-name="Path 294" d="M41.75,33.49a.985.985,0,0,1-.69-1.69l3.52-3.68A1.83,1.83,0,0,0,45,27.07l.36-4.61-1.11,1.35a1,1,0,0,1-1.55-1.26l5.15-6.28-.85,11a3.85,3.85,0,0,1-1,2.25l-3.54,3.7A1,1,0,0,1,41.75,33.49Z" fill="#041256"/>
    <path id="Path_295" data-name="Path 295" d="M44,26a4.891,4.891,0,0,0,0-.54c-.2-1.53-.49-3.05-.65-4.58-.94-9-5.65-12.5-11.32-12.5S21.54,11.92,20.66,21.12c-.14,1.39-.35,2.77-.59,4.14A3.84,3.84,0,0,0,20,26a4.69,4.69,0,0,0,.77,2.53,9.12,9.12,0,0,1,1.39,3.68l.34,2.87a6.82,6.82,0,0,0,2,4.06l3.19,3.2a3.81,3.81,0,0,0,2.67,1.1H33.7a3.81,3.81,0,0,0,2.67-1.1l3.19-3.2a6.82,6.82,0,0,0,2-4.06l.34-2.87a9.12,9.12,0,0,1,1.39-3.68A4.69,4.69,0,0,0,44,26Z" fill="#99cddd"/>
    <path id="Path_296" data-name="Path 296" d="M24.11,37.09l-.34-2.88a9,9,0,0,0-1.4-3.67,4.64,4.64,0,0,1-.7-3.29c.25-1.37.46-2.76.6-4.14.88-9.2,5.62-12.72,11.34-12.72a10.23,10.23,0,0,1,7.31,2.75A10,10,0,0,0,32,8.4c-5.72,0-10.46,3.52-11.34,12.72-.14,1.39-.35,2.77-.59,4.14A3.84,3.84,0,0,0,20,26a4.69,4.69,0,0,0,.77,2.53,9.12,9.12,0,0,1,1.39,3.68l.34,2.87a6.82,6.82,0,0,0,2,4.06l.51.51a6.86,6.86,0,0,1-.9-2.56Z" fill="#c7e8ef"/>
    <path id="Path_297" data-name="Path 297" d="M34.15,27.57l-.74-.5-.95.35-.45-.26h-.02l-.45.26-.95-.35-.73.5,1.37,1.68.74.14v.01l.03-.01.03.01v-.01l.74-.14Z" fill="#84bad8"/>
    <path id="Path_298" data-name="Path 298" d="M32.54,40.45l.63-.71H30.83l.63.71a1,1,0,0,1,.07,1.26l-.55.78,1,.27,1-.27-.55-.78A1,1,0,0,1,32.54,40.45Z" fill="#6394c1"/>
    <path id="Path_299" data-name="Path 299" d="M33.26,37.16,32,37.58l-1.26-.42-1.62.98.52.14,1.1-.34,1.26.2,1.26-.2,1.1.34.52-.14Z" fill="#6394c1"/>
    <path id="Path_300" data-name="Path 300" d="M23.31,26.29l1.46,3.16,2.08.73,1.02-.57.99-.27.54-1.49-4.28-1.19Z" fill="#6394c1"/>
    <path id="Path_301" data-name="Path 301" d="M38.88,26.66,34.6,27.85l.54,1.49.99.27,1.02.57,2.08-.73,1.46-3.16Z" fill="#6394c1"/>
    <path id="Path_302" data-name="Path 302" d="M33.9,34.88l-1.9.76-1.9-.76-.54.43,1.29,1.21A1.64,1.64,0,0,0,32,37h0a1.64,1.64,0,0,0,1.15-.46l1.29-1.21Z" fill="#6394c1"/>
    <path id="Path_303" data-name="Path 303" d="M30.23,27.5h0a2.7,2.7,0,0,1,1,2.1v5.31l-1-.66-.24.16.24-.79.58.2-1.13-3.08a.7.7,0,0,1,0-.55l.71-1.7Z" fill="#c7e8ef"/>
    <path id="Path_304" data-name="Path 304" d="M33.77,27.5h0a2.7,2.7,0,0,0-1,2.1v5.31l1-.66.24.16-.24-.79-.58.2,1.13-3.08a.7.7,0,0,0,0-.55l-.71-1.7Z" fill="#5df9e6"/>
    <path id="Path_305" data-name="Path 305" d="M32.37,43.05a3.74,3.74,0,0,1-2.66-1.11l-3.2-3.19a7,7,0,0,1-2-4.06l-.34-2.88a8.8,8.8,0,0,0-1.39-3.67,4.45,4.45,0,0,1-.7-3.29c.24-1.37.46-2.76.59-4.14.7-7.27,3.81-11,7.9-12.22-5.07.55-9.13,4.2-9.94,12.63-.14,1.39-.35,2.77-.59,4.14A3.84,3.84,0,0,0,20,26a4.69,4.69,0,0,0,.77,2.53,9.12,9.12,0,0,1,1.39,3.68l.34,2.87a6.82,6.82,0,0,0,2,4.06l3.19,3.2a3.81,3.81,0,0,0,2.67,1.1H33.7a3.75,3.75,0,0,0,1.68-.41Z" fill="#c7e8ef"/>
    <path id="Path_306" data-name="Path 306" d="M31.63,43.05a3.74,3.74,0,0,0,2.66-1.11l3.2-3.19a7,7,0,0,0,2-4.06l.34-2.88a8.8,8.8,0,0,1,1.39-3.67,4.45,4.45,0,0,0,.7-3.29c-.24-1.37-.46-2.76-.59-4.14-.7-7.27-3.81-11-7.9-12.22,5.07.55,9.13,4.2,9.94,12.63.14,1.39.35,2.77.59,4.14A3.84,3.84,0,0,1,44,26a4.69,4.69,0,0,1-.77,2.53,9.12,9.12,0,0,0-1.39,3.68L41.5,35.1a6.82,6.82,0,0,1-2,4.06l-3.19,3.2a3.81,3.81,0,0,1-2.67,1.1H30.33a3.75,3.75,0,0,1-1.68-.41Z" fill="#5df9e6"/>
    <path id="Path_307" data-name="Path 307" d="M33.67,44.46H30.33A4.73,4.73,0,0,1,27,43.06l-3.2-3.19a7.87,7.87,0,0,1-2.25-4.65l-.34-2.88a8,8,0,0,0-1.25-3.26,5.53,5.53,0,0,1-.84-4c.29-1.63.47-2.89.58-4.07C20.8,9.17,27.88,7.4,32,7.4S43.1,9.14,44.31,20.79c.09.86.22,1.7.36,2.55.1.67.2,1.34.29,2A4.87,4.87,0,0,1,45,26a5.69,5.69,0,0,1-.92,3.06,8,8,0,0,0-1.25,3.26l-.34,2.88a7.87,7.87,0,0,1-2.25,4.65L37,43.06a4.73,4.73,0,0,1-3.33,1.4ZM32,9.4c-6,0-9.6,4.09-10.35,11.81-.12,1.24-.3,2.54-.6,4.23A3.54,3.54,0,0,0,21.61,28a9.7,9.7,0,0,1,1.54,4.09L23.49,35a5.94,5.94,0,0,0,1.69,3.47l3.19,3.2a2.76,2.76,0,0,0,2,.81h3.34a2.76,2.76,0,0,0,2-.81l3.19-3.2A5.94,5.94,0,0,0,40.51,35l.34-2.87A9.7,9.7,0,0,1,42.39,28,3.79,3.79,0,0,0,43,26a2.73,2.73,0,0,0,0-.41c-.08-.66-.18-1.31-.28-2-.13-.86-.27-1.75-.37-2.65C41.54,13.42,38,9.4,32,9.4Z" fill="#041256"/>
    <path id="Path_308" data-name="Path 308" d="M29.67,35.22l.19-.29a.36.36,0,0,1,.41-.14l.65.3c.19.08.45.21.59.25s.06,0,.15,0l.34-.06v1l-.34-.07a1.07,1.07,0,0,1-.5-.17c-.25-.21-.35-.34-.53-.51L30.16,35C30.07,34.89,29.85,35.1,29.67,35.22Z" fill="#041256"/>
    <path id="Path_309" data-name="Path 309" d="M34.33,35.22c-.18-.12-.4-.33-.49-.2l-.47.48c-.18.17-.28.3-.53.51a1.07,1.07,0,0,1-.5.17l-.34.07v-1l.34.06h.15a5.784,5.784,0,0,0,.59-.25l.65-.3a.36.36,0,0,1,.41.14Z" fill="#041256"/>
    <path id="Path_310" data-name="Path 310" d="M22.05,28.77l1.75,4a1.26,1.26,0,0,0,.51.61,2.06,2.06,0,0,1,.9.9,2.93,2.93,0,0,1,.21,1.15l.08,1.1-.32-1a2.62,2.62,0,0,0-.4-.94,1.35,1.35,0,0,0-.75-.46,2.09,2.09,0,0,1-1.09-.81l-2.62-3.54a1,1,0,1,1,1.61-1.2.82.82,0,0,1,.12.19Z" fill="#041256"/>
    <path id="Path_311" data-name="Path 311" d="M43.68,29.76l-2.62,3.53A2,2,0,0,1,40,34.1a1.36,1.36,0,0,0-.75.47,2.62,2.62,0,0,0-.4.94l-.32,1.05.08-1.1a2.87,2.87,0,0,1,.21-1.15,2,2,0,0,1,.9-.9,1.24,1.24,0,0,0,.51-.62l1.75-4a1.008,1.008,0,1,1,1.85.8.82.82,0,0,1-.15.17Z" fill="#041256"/>
    <path id="Path_312" data-name="Path 312" d="M28.67,38l1,.11H29.6l.94-.39h.14l1.42.06a.51.51,0,0,1,0,1,.41.41,0,0,1-.16,0l-1.34-.51h.14l-1,.18H29.6Z" fill="#041256"/>
    <path id="Path_313" data-name="Path 313" d="M35.33,38l-.93.43h-.09l-1-.18h.14l-1.34.51a.5.5,0,0,1-.65-.29.51.51,0,0,1,.29-.66.45.45,0,0,1,.16,0l1.42-.06h.14l.94.39h-.09Z" fill="#041256"/>
    <path id="Path_314" data-name="Path 314" d="M30.47,39.74a4.81,4.81,0,0,1,3.06,0A4.81,4.81,0,0,1,30.47,39.74Z" fill="#041256"/>
    <path id="Path_315" data-name="Path 315" d="M23.73,26.36l1,.7a3.49,3.49,0,0,1,1,1.07l.39.65,2.23.28.61.28,1.63-2-.89.23Z" fill="#041256"/>
    <path id="Path_316" data-name="Path 316" d="M28.41,27.65a.73.73,0,0,1-.73.74.74.74,0,1,1,0-1.47.73.73,0,0,1,.73.73Z" fill="#3351d1"/>
    <path id="Path_317" data-name="Path 317" d="M28.09,27.65a.41.41,0,1,1-.41-.41.41.41,0,0,1,.41.41Z" fill="#2b35b2"/>
    <path id="Path_318" data-name="Path 318" d="M27.45,27.5a.24.24,0,1,1-.24-.24.24.24,0,0,1,.24.24Z" fill="#6887ea"/>
    <path id="Path_319" data-name="Path 319" d="M23,24.52a8.25,8.25,0,0,1,.8,1.05.62.62,0,0,1-.08.53l-.1.16h0a.3.3,0,0,0-.08-.29h.39c.83.1,1.65.25,2.47.41s1.63.37,2.43.61l.6.18a.87.87,0,0,0,.46.08,2.35,2.35,0,0,0,.54-.19c.19-.08.39-.16.6-.23-.14.17-.29.32-.44.47a2.28,2.28,0,0,1-.54.44,1.3,1.3,0,0,1-.77.1l-.63-.07c-.83-.1-1.65-.25-2.47-.42s-1.63-.37-2.43-.61l-.3-.09-.17-.06a.49.49,0,0,1-.19-.11.41.41,0,0,1-.12-.42.61.61,0,0,1,.17-.24l.1-.09c.05-.05.06-.05.07-.05A12,12,0,0,1,23,24.52Z" fill="#041256"/>
    <path id="Path_320" data-name="Path 320" d="M25.35,28.7a9.65,9.65,0,0,1,2.34,0,2.4,2.4,0,0,1,1.17.37,2,2,0,0,1,.78.93,3.61,3.61,0,0,0-1-.59,3.22,3.22,0,0,0-1.05-.21,10.21,10.21,0,0,1-2.24-.5Z" fill="#041256"/>
    <path id="Path_321" data-name="Path 321" d="M23.21,25l-.9-1.33a4.82,4.82,0,0,1-.8-2.65V20l.73,1.08a5.74,5.74,0,0,0,1.14,1.22l2.51,2" fill="#99cddd"/>
    <path id="Path_322" data-name="Path 322" d="M22.83,22v-.14a5.53,5.53,0,0,1-.58-.7L21.52,20v1a4.82,4.82,0,0,0,.8,2.65l.9,1.33C22.69,24.26,22.82,22.89,22.83,22Z" fill="#c7e8ef"/>
    <path id="Path_323" data-name="Path 323" d="M23.21,25c-.33-.32-.64-.66-.95-1a4.5,4.5,0,0,1-1.19-2.62A13.469,13.469,0,0,1,21,20V18.45l.95,1.3c.3.41.58.88.84,1.26a5.92,5.92,0,0,0,.95,1.06,24,24,0,0,1,2.18,2.21,21.61,21.61,0,0,1-2.68-1.57A5.63,5.63,0,0,1,22,21.59c-.32-.46-.61-.85-.89-1.29L22,20v1.33a5.22,5.22,0,0,0,.18,1.23,5.44,5.44,0,0,0,.49,1.19C22.85,24.19,23.05,24.61,23.21,25Z" fill="#041256"/>
    <path id="Path_324" data-name="Path 324" d="M26.58,26.11,26,24.62a4.58,4.58,0,0,1-.23-2.76l.22-1,.49,1.22a5.44,5.44,0,0,0,.86,1.42l2,2.44" fill="#99cddd"/>
    <path id="Path_325" data-name="Path 325" d="M23.71,24.3l.66,1.09s4,.51,5.27,1.53l.95-.4-.65-.16s-1-1-4-1.25Z" fill="#c7e8ef"/>
    <path id="Path_326" data-name="Path 326" d="M26.84,23v-.14a5,5,0,0,1-.41-.8L26,20.85l-.22,1A4.58,4.58,0,0,0,26,24.62l.6,1.49C26.22,25.24,26.64,23.93,26.84,23Z" fill="#c7e8ef"/>
    <path id="Path_327" data-name="Path 327" d="M26.58,26.11c-.27-.38-.5-.78-.73-1.18a4.21,4.21,0,0,1-.53-1.33,4.32,4.32,0,0,1-.09-1.48c.06-.52.17-.91.26-1.37l.28-1.55.66,1.47c.2.46.38,1,.56,1.41a5.57,5.57,0,0,0,.7,1.23,20.8,20.8,0,0,1,1.67,2.62,21.76,21.76,0,0,1-2.29-2.1,5.24,5.24,0,0,1-1-1.35c-.22-.51-.42-.95-.6-1.44l.94-.08-.31,1.29a5.14,5.14,0,0,0-.08,1.24,5.29,5.29,0,0,0,.22,1.27A9.2,9.2,0,0,1,26.58,26.11Z" fill="#041256"/>
    <path id="Path_328" data-name="Path 328" d="M27.28,10.91l.11-.93a2.72,2.72,0,0,1,.67-1.47l.39-.45-.09.76a3.16,3.16,0,0,0,0,1l.35,1.82" fill="#99cddd"/>
    <path id="Path_329" data-name="Path 329" d="M28.29,9.4l.05-.06a4.52,4.52,0,0,1,0-.52l.09-.76-.39.45A2.72,2.72,0,0,0,27.39,10l-.11.93C27.34,10.37,27.93,9.82,28.29,9.4Z" fill="#c7e8ef"/>
    <path id="Path_330" data-name="Path 330" d="M27.28,10.91a4.55,4.55,0,0,1-.13-.81,2.4,2.4,0,0,1,.05-.88,2.63,2.63,0,0,1,.37-.84,7.789,7.789,0,0,1,.51-.65l1-1.2-.1,1.59a7.648,7.648,0,0,1-.11.87,3.33,3.33,0,0,0,0,.78,7.61,7.61,0,0,1-.06,1.84A8.07,8.07,0,0,1,28,9.92a3,3,0,0,1-.14-1,3.029,3.029,0,0,1,.09-.91l.86.39-.52.55a3.59,3.59,0,0,0-.4.54,4.64,4.64,0,0,0-.3.67A5.57,5.57,0,0,1,27.28,10.91Z" fill="#041256"/>
    <path id="Path_331" data-name="Path 331" d="M25.43,12.56l.18-1.43a4.2,4.2,0,0,1,1-2.25l.61-.69-.14,1.16a4.66,4.66,0,0,0,0,1.49l.52,2.8" fill="#99cddd"/>
    <path id="Path_332" data-name="Path 332" d="M27,10.25l.08-.09a4.39,4.39,0,0,1,0-.81l.14-1.16-.61.69a4.2,4.2,0,0,0-1,2.25l-.18,1.43C25.53,11.72,26.43,10.88,27,10.25Z" fill="#c7e8ef"/>
    <path id="Path_333" data-name="Path 333" d="M25.43,12.56c-.05-.42-.07-.83-.08-1.24A4.11,4.11,0,0,1,25.51,10a4,4,0,0,1,.58-1.21c.27-.38.53-.64.8-1l1-1.21-.15,1.6a11.559,11.559,0,0,1-.18,1.35,5.23,5.23,0,0,0,0,1.25,17.23,17.23,0,0,1,.11,2.79,18.69,18.69,0,0,1-.9-2.64,4.55,4.55,0,0,1-.16-1.48c.05-.5.08-.93.15-1.39l.86.39-.81.87a4.78,4.78,0,0,0-.6.91,4.93,4.93,0,0,0-.4,1.08A9.706,9.706,0,0,1,25.43,12.56Z" fill="#041256"/>
    <path id="Path_334" data-name="Path 334" d="M23.92,14.48V12.87a4.72,4.72,0,0,1,.83-2.64l.58-.84v1.3a5.42,5.42,0,0,0,.26,1.65l1,3" fill="#99cddd"/>
    <path id="Path_335" data-name="Path 335" d="M25.33,11.71l.08-.11a5.5,5.5,0,0,1-.08-.91V9.39l-.58.84a4.72,4.72,0,0,0-.83,2.64v1.61C23.92,13.54,24.8,12.49,25.33,11.71Z" fill="#c7e8ef"/>
    <path id="Path_336" data-name="Path 336" d="M23.92,14.48c-.1-.45-.17-.9-.23-1.36a4.64,4.64,0,0,1,0-1.44,4.41,4.41,0,0,1,.49-1.4,13.279,13.279,0,0,1,.75-1.18l.84-1.32.06,1.61v1.52a5.66,5.66,0,0,0,.18,1.4,20.63,20.63,0,0,1,.56,3.06,24,24,0,0,1-1.33-2.81A5.18,5.18,0,0,1,24.86,11V9.43l.9.29L25,10.75a5,5,0,0,0-.55,1.11,6.11,6.11,0,0,0-.27,1.26C24.09,13.58,24,14,23.92,14.48Z" fill="#041256"/>
    <path id="Path_337" data-name="Path 337" d="M21.65,17.35l-.2-2.64a7.74,7.74,0,0,1,1-4.44l.86-1.47.18,2.2a8.75,8.75,0,0,0,.63,2.67l2,4.85" fill="#99cddd"/>
    <path id="Path_338" data-name="Path 338" d="M23.62,12.62l.11-.2A9,9,0,0,1,23.49,11l-.16-2.2-.86,1.47a7.74,7.74,0,0,0-1,4.44l.2,2.64C21.53,15.8,22.84,14,23.62,12.62Z" fill="#c7e8ef"/>
    <path id="Path_339" data-name="Path 339" d="M20.65,17.43V15.18a9.54,9.54,0,0,1,.18-2.42,8,8,0,0,1,.86-2.29c.41-.73.82-1.28,1.23-1.93l.94-1.49.05,1.71.06,2.52a8.31,8.31,0,0,0,.51,2.39l1.67,4.8-2.16-4.6a9.2,9.2,0,0,1-.81-2.49L22.8,8.84l1,.23c-.33.65-.73,1.36-1,2a6.82,6.82,0,0,0-.51,2,7.84,7.84,0,0,0,.07,2l.28,2.23a1.008,1.008,0,1,1-2,.25A.34.34,0,0,1,20.65,17.43Z" fill="#041256"/>
    <path id="Path_340" data-name="Path 340" d="M28,37.94h.01c-.38-.37-.89-.64-1.09-1.1a5,5,0,0,1-.1-1.56,2.68,2.68,0,0,0-.38-1.6,4.85,4.85,0,0,0-1.21-1.1,7,7,0,0,1,1.06,1.19,2.58,2.58,0,0,1,.28,1.51v.81a1.65,1.65,0,0,0,.15.84,1.45,1.45,0,0,0,.57.63l.67.46Z" fill="#c7e8ef"/>
    <path id="Path_341" data-name="Path 341" d="M25.87,32.19c.29.19.62.34.87.53a1.9,1.9,0,0,1,.57.77,4.47,4.47,0,0,1,.33.95,6.61,6.61,0,0,1,0,1,2.16,2.16,0,0,0,.14,1c.21.3.43.54.65.81h0l1.14.3-1.09-.4c-.19-.27-.41-.55-.58-.81a2.55,2.55,0,0,1-.07-1,7.41,7.41,0,0,0,0-1.05,3.69,3.69,0,0,0-.34-1,2,2,0,0,0-.65-.86A9.231,9.231,0,0,0,26,32a2.21,2.21,0,0,1-1.11-1.57l.36-.46-.41.44h0A2.24,2.24,0,0,0,25.87,32.19Z" fill="#c7e8ef"/>
    <path id="Path_342" data-name="Path 342" d="M28.83,35.18a12.344,12.344,0,0,1,0-1.49,2.18,2.18,0,0,0-.67-1.38,3.31,3.31,0,0,0-1.36-.66,4,4,0,0,1,1.23.78,2.16,2.16,0,0,1,.56,1.28,12.74,12.74,0,0,0,.05,1.5,3,3,0,0,0,.61,1.4h0l.84.27-.77-.38a3.28,3.28,0,0,1-.49-1.32Z" fill="#c7e8ef"/>
    <path id="Path_343" data-name="Path 343" d="M28.11,19.94a6.4,6.4,0,0,0,1.16,1.76c.42.55.88,1.09,1.26,1.64a3.21,3.21,0,0,1,.38,1l.28,1-.22-1a3.27,3.27,0,0,0-.33-1c-.39-.59-.83-1.12-1.24-1.68a6.09,6.09,0,0,1-1.09-1.72,8.6,8.6,0,0,1-.1-2c0-.69,0-1.41,0-2.07a2.55,2.55,0,0,1,1-1.7,3,3,0,0,0,1.31-1.61,7.33,7.33,0,0,0,.08-2.09,7.33,7.33,0,0,1-.19,2.05,2.82,2.82,0,0,1-1.31,1.52,2.8,2.8,0,0,0-1.1,1.7c-.06.72,0,1.4-.05,2.1v1A3.23,3.23,0,0,0,28.11,19.94Z" fill="#c7e8ef"/>
    <path id="Path_344" data-name="Path 344" d="M30.74,14.48a2.72,2.72,0,0,0-1.43,1.83,6,6,0,0,0-.06,1.19v1.17a2.68,2.68,0,0,0,.34,1.17,6.91,6.91,0,0,0,.71.95c.25.3.51.6.74.91a5.94,5.94,0,0,1,.52,1,5.75,5.75,0,0,0-.42-1.11c-.22-.34-.46-.63-.69-1a9.43,9.43,0,0,1-.66-.94,2.38,2.38,0,0,1-.29-1.07c0-.76-.06-1.58,0-2.32A2.83,2.83,0,0,1,30.74,14.48Z" fill="#c7e8ef"/>
    <path id="Path_345" data-name="Path 345" d="M28.67,23.25c.37.49.64,1.08,1,1.61a10.36,10.36,0,0,0-.81-1.72L27.72,21.6a3.33,3.33,0,0,1-.83-1.6c-.07-.6-.06-1.25-.12-1.88A15.111,15.111,0,0,0,26.7,20a3.33,3.33,0,0,0,.82,1.73Z" fill="#c7e8ef"/>
    <path id="Path_346" data-name="Path 346" d="M30.74,40.09a7.23,7.23,0,0,0-1-.68h-.06l-.07.05a8.57,8.57,0,0,0-1.4,1.15,8,8,0,0,0,1.48-.93,6.49,6.49,0,0,0,1.05.41Z" fill="#c7e8ef"/>
    <path id="Path_347" data-name="Path 347" d="M29.5,39.06a1.32,1.32,0,0,0-.37-.34h-.12a8.57,8.57,0,0,0-1.4,1.15A8.46,8.46,0,0,0,29.1,39a1.56,1.56,0,0,0,.4.06Z" fill="#c7e8ef"/>
    <path id="Path_348" data-name="Path 348" d="M29.86,40.32h-.07l-.05.05a7,7,0,0,0-.89.84,10.67,10.67,0,0,0,1-.62c.36.19.74.37,1.12.53h.06a8,8,0,0,0,.51-.64,5.4,5.4,0,0,0-.58.47,11.7,11.7,0,0,0-1.1-.63Z" fill="#c7e8ef"/>
    <path id="Path_349" data-name="Path 349" d="M40.27,26.36l-1,.7a3.49,3.49,0,0,0-1,1.07l-.39.65-2.23.28-.61.28-1.63-2,.89.23Z" fill="#041256"/>
    <path id="Path_350" data-name="Path 350" d="M35.59,27.65a.73.73,0,0,0,.73.74.74.74,0,1,0,0-1.47.73.73,0,0,0-.73.73Z" fill="#3351d1"/>
    <path id="Path_351" data-name="Path 351" d="M35.91,27.65a.41.41,0,1,0,.41-.41A.41.41,0,0,0,35.91,27.65Z" fill="#2b35b2"/>
    <path id="Path_352" data-name="Path 352" d="M36.55,27.5a.24.24,0,1,0,.24-.24.24.24,0,0,0-.24.24Z" fill="#6887ea"/>
    <path id="Path_353" data-name="Path 353" d="M41,24.52a12,12,0,0,1-.31,1.19l.07.05.1.09a.61.61,0,0,1,.17.24.41.41,0,0,1-.12.42.49.49,0,0,1-.19.11l-.17.06-.3.09c-.8.24-1.62.43-2.43.61s-1.64.32-2.47.42l-.63.07a1.3,1.3,0,0,1-.77-.1,2.28,2.28,0,0,1-.54-.44c-.15-.15-.3-.3-.44-.47.21.07.41.15.6.23a2.35,2.35,0,0,0,.54.19.87.87,0,0,0,.46-.08l.6-.18c.8-.24,1.61-.44,2.43-.61s1.64-.31,2.47-.41h.44a.3.3,0,0,0-.08.29h0l-.1-.16a.62.62,0,0,1-.08-.53A8.25,8.25,0,0,1,41,24.52Z" fill="#041256"/>
    <path id="Path_354" data-name="Path 354" d="M38.65,28.7a10.21,10.21,0,0,1-2.28.49,3.22,3.22,0,0,0-1,.21,3.61,3.61,0,0,0-1,.59,2,2,0,0,1,.78-.93,2.4,2.4,0,0,1,1.17-.37,9.65,9.65,0,0,1,2.33.01Z" fill="#041256"/>
    <path id="Path_355" data-name="Path 355" d="M40.79,25l.9-1.33a4.82,4.82,0,0,0,.8-2.65V20l-.73,1.08a5.74,5.74,0,0,1-1.14,1.22l-2.51,2" fill="#99cddd"/>
    <path id="Path_356" data-name="Path 356" d="M41.17,22v-.14a5.53,5.53,0,0,0,.58-.7L42.48,20v1a4.82,4.82,0,0,1-.8,2.65L40.79,25C41.31,24.26,41.18,22.89,41.17,22Z" fill="#5df9e6"/>
    <path id="Path_357" data-name="Path 357" d="M40.79,25c.16-.43.36-.85.56-1.26a5.44,5.44,0,0,0,.49-1.19A5.22,5.22,0,0,0,42,21.36V20l.9.27c-.28.44-.57.83-.89,1.29a5.63,5.63,0,0,1-1.22,1.12,21.61,21.61,0,0,1-2.68,1.57,24,24,0,0,1,2.18-2.21A5.92,5.92,0,0,0,41.23,21c.26-.38.54-.85.84-1.26l1-1.3L43,20a13.471,13.471,0,0,1,0,1.4A4.5,4.5,0,0,1,41.74,24,7.614,7.614,0,0,1,40.79,25Z" fill="#041256"/>
    <path id="Path_358" data-name="Path 358" d="M37.42,26.11l.6-1.49a4.58,4.58,0,0,0,.23-2.76l-.22-1-.49,1.22a5.44,5.44,0,0,1-.86,1.42l-2,2.44" fill="#99cddd"/>
    <path id="Path_359" data-name="Path 359" d="M40.29,24.3l-.66,1.09s-4,.51-5.27,1.53l-1-.4.65-.16s1-1,4-1.25Z" fill="#c7e8ef"/>
    <path id="Path_360" data-name="Path 360" d="M37.16,23v-.14a5,5,0,0,0,.41-.8L38,20.85l.22,1A4.58,4.58,0,0,1,38,24.62l-.6,1.49C37.78,25.24,37.36,23.93,37.16,23Z" fill="#5df9e6"/>
    <path id="Path_361" data-name="Path 361" d="M37.42,26.11c.08-.46.19-.9.3-1.35a5.29,5.29,0,0,0,.22-1.27,5.14,5.14,0,0,0-.08-1.24L37.55,21l.94.08c-.18.49-.38.93-.6,1.44a5.24,5.24,0,0,1-1,1.35,21.76,21.76,0,0,1-2.29,2.1,20.8,20.8,0,0,1,1.67-2.62,5.57,5.57,0,0,0,.7-1.23c.18-.44.36-.95.56-1.41l.66-1.47.28,1.55c.09.46.2.85.26,1.37a4.32,4.32,0,0,1-.09,1.48,4.21,4.21,0,0,1-.53,1.33A10.191,10.191,0,0,1,37.42,26.11Z" fill="#041256"/>
    <path id="Path_362" data-name="Path 362" d="M36.72,10.91,36.61,10a2.72,2.72,0,0,0-.67-1.47l-.39-.45.09.76a3.16,3.16,0,0,1,0,1l-.35,1.82" fill="#99cddd"/>
    <path id="Path_363" data-name="Path 363" d="M35.71,9.4l-.05-.06a4.521,4.521,0,0,0,0-.52l-.09-.76.39.45A2.72,2.72,0,0,1,36.61,10l.11.93C36.66,10.37,36.07,9.82,35.71,9.4Z" fill="#5df9e6"/>
    <path id="Path_364" data-name="Path 364" d="M36.72,10.91a5.57,5.57,0,0,1-.32-.76,4.64,4.64,0,0,0-.3-.67,3.59,3.59,0,0,0-.4-.54l-.52-.55L36,8c.05.31.06.57.09.91a3,3,0,0,1-.14,1,8.07,8.07,0,0,1-.73,1.69,7.61,7.61,0,0,1-.06-1.84,3.33,3.33,0,0,0,0-.78c0-.26-.1-.58-.11-.87L35,6.53l1,1.2a7.79,7.79,0,0,1,.51.65,2.63,2.63,0,0,1,.37.84,2.4,2.4,0,0,1,.05.88,4.55,4.55,0,0,1-.21.81Z" fill="#041256"/>
    <path id="Path_365" data-name="Path 365" d="M38.57,12.56l-.18-1.43a4.2,4.2,0,0,0-1-2.25l-.61-.69.14,1.16a4.66,4.66,0,0,1,0,1.49l-.52,2.8" fill="#99cddd"/>
    <path id="Path_366" data-name="Path 366" d="M37,10.25l-.08-.09a4.39,4.39,0,0,0,0-.81l-.14-1.16.61.69a4.2,4.2,0,0,1,1,2.25l.18,1.43C38.47,11.72,37.57,10.88,37,10.25Z" fill="#5df9e6"/>
    <path id="Path_367" data-name="Path 367" d="M38.57,12.56c-.15-.39-.27-.79-.38-1.18a4.93,4.93,0,0,0-.4-1.08,4.78,4.78,0,0,0-.6-.91l-.81-.87.86-.39c.07.46.1.89.15,1.39A4.55,4.55,0,0,1,37.23,11a18.69,18.69,0,0,1-.9,2.64,17.23,17.23,0,0,1,.11-2.79,5.23,5.23,0,0,0,0-1.25c0-.42-.15-.9-.18-1.35l-.15-1.6,1,1.21a8.744,8.744,0,0,1,.8,1A4,4,0,0,1,38.49,10a4.11,4.11,0,0,1,.16,1.29C38.64,11.73,38.62,12.14,38.57,12.56Z" fill="#041256"/>
    <path id="Path_368" data-name="Path 368" d="M40.08,14.48V12.87a4.72,4.72,0,0,0-.83-2.64l-.58-.84v1.3a5.42,5.42,0,0,1-.26,1.65l-1,3" fill="#99cddd"/>
    <path id="Path_369" data-name="Path 369" d="M38.67,11.71l-.08-.11a5.5,5.5,0,0,0,.08-.91V9.39l.58.84a4.72,4.72,0,0,1,.83,2.64v1.61C40.08,13.54,39.2,12.49,38.67,11.71Z" fill="#5df9e6"/>
    <path id="Path_370" data-name="Path 370" d="M40.08,14.48c-.1-.45-.17-.9-.23-1.36a6.11,6.11,0,0,0-.27-1.26A5,5,0,0,0,39,10.75l-.77-1.08.9-.29v1.57a5.18,5.18,0,0,1-.37,1.61,24,24,0,0,1-1.33,2.81A20.63,20.63,0,0,1,38,12.31a5.66,5.66,0,0,0,.18-1.4V9.39l.06-1.61.84,1.32a13.28,13.28,0,0,1,.75,1.18,4.41,4.41,0,0,1,.49,1.4,4.64,4.64,0,0,1,0,1.44C40.25,13.58,40.18,14,40.08,14.48Z" fill="#041256"/>
    <path id="Path_371" data-name="Path 371" d="M42.35,17.35l.2-2.64a7.74,7.74,0,0,0-1-4.44L40.67,8.8,40.51,11a8.75,8.75,0,0,1-.63,2.67l-2,4.85" fill="#99cddd"/>
    <path id="Path_372" data-name="Path 372" d="M40.38,12.62l-.11-.2A9,9,0,0,0,40.51,11l.16-2.15.86,1.47a7.74,7.74,0,0,1,1,4.44l-.2,2.64C42.47,15.8,41.16,14,40.38,12.62Z" fill="#5df9e6"/>
    <path id="Path_373" data-name="Path 373" d="M41.36,17.28l.28-2.23a7.84,7.84,0,0,0,.07-2,6.82,6.82,0,0,0-.51-2c-.26-.61-.66-1.32-1-2l1-.23-.33,2.54a9.2,9.2,0,0,1-.81,2.49l-2.16,4.6,1.67-4.8a8.31,8.31,0,0,0,.51-2.39l.06-2.52V7.03l.94,1.49c.41.65.82,1.2,1.23,1.93a8,8,0,0,1,.86,2.29,9.54,9.54,0,0,1,.18,2.42v2.25a1,1,0,1,1-2-.05A.34.34,0,0,1,41.36,17.28Z" fill="#041256"/>
    <path id="Path_374" data-name="Path 374" d="M36,37.94h-.01c.38-.37.89-.64,1.09-1.1a5,5,0,0,0,.1-1.56,2.68,2.68,0,0,1,.38-1.6,4.85,4.85,0,0,1,1.21-1.1,7,7,0,0,0-1.06,1.19,2.58,2.58,0,0,0-.28,1.51v.81a1.65,1.65,0,0,1-.15.84,1.45,1.45,0,0,1-.57.63l-.67.46Z" fill="#5df9e6"/>
    <path id="Path_375" data-name="Path 375" d="M38.13,32.19c-.29.19-.62.34-.87.53a1.9,1.9,0,0,0-.57.77,4.47,4.47,0,0,0-.33.95,6.61,6.61,0,0,0,0,1,2.16,2.16,0,0,1-.14,1c-.21.3-.43.54-.65.81h0l-1.14.3,1.09-.4c.19-.27.41-.55.58-.81a2.55,2.55,0,0,0,.07-1,7.41,7.41,0,0,1,0-1.05,3.69,3.69,0,0,1,.34-1,2,2,0,0,1,.65-.86A9.23,9.23,0,0,1,38,32a2.21,2.21,0,0,0,1.11-1.57L38.78,30l.41.44h0a2.24,2.24,0,0,1-1.06,1.75Z" fill="#5df9e6"/>
    <path id="Path_376" data-name="Path 376" d="M35.17,35.18a12.344,12.344,0,0,0,0-1.49,2.18,2.18,0,0,1,.67-1.38,3.31,3.31,0,0,1,1.36-.66,4,4,0,0,0-1.23.78,2.16,2.16,0,0,0-.56,1.28,12.741,12.741,0,0,1,0,1.5,3,3,0,0,1-.61,1.4h0l-.84.27.77-.38A3.28,3.28,0,0,0,35.17,35.18Z" fill="#5df9e6"/>
    <path id="Path_377" data-name="Path 377" d="M35.89,19.94a6.4,6.4,0,0,1-1.16,1.76c-.42.55-.88,1.09-1.26,1.64a3.21,3.21,0,0,0-.38,1l-.28,1,.22-1a3.27,3.27,0,0,1,.33-1c.39-.59.83-1.12,1.24-1.68a6.09,6.09,0,0,0,1.09-1.72,8.6,8.6,0,0,0,.1-2V15.87a2.55,2.55,0,0,0-1-1.7,3,3,0,0,1-1.31-1.61,7.33,7.33,0,0,1-.08-2.09,7.33,7.33,0,0,0,.19,2.05,2.82,2.82,0,0,0,1.31,1.52,2.8,2.8,0,0,1,1.1,1.7c.06.72,0,1.4,0,2.1v1A3.23,3.23,0,0,1,35.89,19.94Z" fill="#5df9e6"/>
    <path id="Path_378" data-name="Path 378" d="M33.26,14.48a2.72,2.72,0,0,1,1.43,1.83,6,6,0,0,1,.06,1.19v1.17a2.68,2.68,0,0,1-.34,1.17,6.91,6.91,0,0,1-.71.95c-.25.3-.51.6-.74.91a5.94,5.94,0,0,0-.52,1,5.75,5.75,0,0,1,.42-1.11c.22-.34.46-.63.69-1a9.43,9.43,0,0,0,.66-.94,2.38,2.38,0,0,0,.29-1.07c0-.76.06-1.58,0-2.32A2.83,2.83,0,0,0,33.26,14.48Z" fill="#5df9e6"/>
    <path id="Path_379" data-name="Path 379" d="M35.33,23.25c-.37.49-.64,1.08-1,1.61a10.36,10.36,0,0,1,.81-1.72l1.11-1.54a3.33,3.33,0,0,0,.86-1.6c.07-.6.06-1.25.12-1.88A15.11,15.11,0,0,1,37.3,20a3.33,3.33,0,0,1-.82,1.73Z" fill="#5df9e6"/>
    <path id="Path_380" data-name="Path 380" d="M33.26,40.09a7.231,7.231,0,0,1,1-.68h.06l.07.05a8.57,8.57,0,0,1,1.4,1.15,8,8,0,0,1-1.48-.93A6.49,6.49,0,0,1,33.26,40.09Z" fill="#5df9e6"/>
    <path id="Path_381" data-name="Path 381" d="M34.5,39.06a1.32,1.32,0,0,1,.37-.34h.12a8.57,8.57,0,0,1,1.4,1.15A8.46,8.46,0,0,1,34.9,39a1.56,1.56,0,0,1-.4.06Z" fill="#5df9e6"/>
    <path id="Path_382" data-name="Path 382" d="M34.14,40.32h.07v.05a7,7,0,0,1,.89.84,10.67,10.67,0,0,1-1-.62c-.36.19-.74.37-1.12.53h-.06a8,8,0,0,1-.51-.64,5.4,5.4,0,0,1,.58.47,11.7,11.7,0,0,1,1.15-.63Z" fill="#5df9e6"/>
    <path id="Path_383" data-name="Path 383" d="M32,11.28c.07,1.46.08,2.92.1,4.37v.06h0l-1,.72v-.17c.67.73,1.31,1.51,2,2.26l.07.08-.09.06-1,.65v-.06c0,3.35,0,6.69-.08,10,0-3.35-.07-6.69-.08-10h0l1-.68v.13c-.67-.74-1.36-1.47-2-2.23l-.09-.1.11-.07,1-.7v.08C31.92,14.2,31.93,12.74,32,11.28Z" fill="#c7e8ef"/>
    <path id="Path_384" data-name="Path 384" d="M35.39,50.36A3.39,3.39,0,1,1,32,47,3.39,3.39,0,0,1,35.39,50.36Z" fill="#456a82"/>
    <path id="Path_385" data-name="Path 385" d="M32,47a3.4,3.4,0,1,1-3.39,3.39A3.4,3.4,0,0,1,32,47m0-1a4.4,4.4,0,1,0,4.39,4.39A4.4,4.4,0,0,0,32,46Z" fill="#385272"/>
  </g>
</svg>
